<svg fill="#dc2626" height="64px" width="64px" version="1.1" id="Capa_1" xmlns="http://www.w3.org/2000/svg" xmlns:xlink="http://www.w3.org/1999/xlink" viewBox="0 0 247.159 247.159" xml:space="preserve" stroke="#dc2626"><g id="SVGRepo_bgCarrier" stroke-width="0"></g><g id="SVGRepo_tracerCarrier" stroke-linecap="round" stroke-linejoin="round"></g><g id="SVGRepo_iconCarrier"> <g> <path d="M41.081,179.007c-18.237,0-33.501,14.838-33.501,33.076v30.074c0,2.762,2.629,5,5.391,5l56.344,0.002 c1.326,0,2.731-0.526,3.668-1.465c0.938-0.938,1.597-2.209,1.597-3.535v-30.076C74.58,193.845,59.317,179.007,41.081,179.007z"></path> <path d="M41.438,176.688c12.229-0.001,22.177-9.95,22.177-22.179c0-12.228-9.949-22.176-22.178-22.176s-22.178,9.948-22.178,22.176 C19.259,166.738,29.208,176.688,41.438,176.688L41.438,176.688z"></path> <path d="M123.581,179.007c-18.237,0-33.001,14.838-33.001,33.076v30.074c0,2.762,2.443,5,5.205,5l56.251,0.002 c1.326,0,2.369-0.526,3.307-1.465c0.939-0.938,1.237-2.209,1.237-3.535v-30.076C156.58,193.845,141.817,179.007,123.581,179.007z"></path> <path d="M124.065,176.688c12.229-0.001,22.177-9.95,22.177-22.179c0-12.228-9.949-22.176-22.178-22.176 c-12.228,0-22.178,9.948-22.178,22.176C101.886,166.738,111.835,176.688,124.065,176.688 C124.064,176.688,124.064,176.688,124.065,176.688z"></path> <path d="M206.081,179.007c-18.237,0-33.501,14.838-33.501,33.076v30.074c0,2.762,2.603,5,5.365,5l56.331,0.002 c1.326,0,2.75-0.526,3.688-1.465c0.939-0.938,1.616-2.209,1.616-3.535v-30.076C239.58,193.845,224.317,179.007,206.081,179.007z"></path> <path d="M206.386,176.688c12.229-0.001,22.177-9.95,22.177-22.179c0-12.228-9.949-22.176-22.178-22.176 c-12.229,0-22.178,9.948-22.178,22.176C184.208,166.738,194.157,176.688,206.386,176.688 C206.385,176.688,206.385,176.688,206.386,176.688z"></path> <path d="M41.081,47.226c-18.237,0-33.501,14.838-33.501,33.076v30.074c0,2.762,2.629,5,5.391,5l56.344,0.002 c1.326,0,2.731-0.526,3.668-1.465c0.938-0.938,1.597-2.209,1.597-3.535V80.302C74.58,62.063,59.317,47.226,41.081,47.226z"></path> <path d="M41.437,44.354L41.437,44.354c12.229-0.001,22.178-9.95,22.178-22.179C63.615,9.948,53.665,0,41.437,0 S19.259,9.948,19.259,22.176C19.259,34.405,29.208,44.354,41.437,44.354z"></path> <path d="M123.581,47.226c-18.237,0-33.001,14.838-33.001,33.076v30.074c0,2.762,2.443,5,5.205,5l56.251,0.002 c1.326,0,2.369-0.526,3.307-1.465c0.939-0.938,1.237-2.209,1.237-3.535V80.302C156.58,62.063,141.817,47.226,123.581,47.226z"></path> <path d="M124.064,44.354C124.064,44.354,124.064,44.354,124.064,44.354c12.229-0.001,22.178-9.95,22.178-22.179 C146.242,9.948,136.292,0,124.064,0c-12.228,0-22.178,9.948-22.178,22.176C101.886,34.405,111.835,44.354,124.064,44.354z"></path> <path d="M206.081,47.226c-18.237,0-33.501,14.838-33.501,33.076v30.074c0,2.762,2.603,5,5.365,5l56.331,0.002 c1.326,0,2.75-0.526,3.688-1.465c0.939-0.938,1.616-2.209,1.616-3.535V80.302C239.58,62.063,224.317,47.226,206.081,47.226z M229.58,105.378l-47-0.002V80.302c0-12.725,10.777-23.076,23.501-23.076c12.723,0,23.499,10.352,23.499,23.076V105.378z"></path> <path d="M206.385,44.354C206.385,44.354,206.385,44.354,206.385,44.354c12.229-0.001,22.178-9.95,22.178-22.179 C228.563,9.948,218.614,0,206.385,0c-12.229,0-22.178,9.948-22.178,22.176C184.208,34.405,194.157,44.354,206.385,44.354z M206.385,10c6.715,0,12.178,5.462,12.178,12.176c0,6.715-5.463,12.178-12.178,12.179c-6.715,0-12.178-5.463-12.178-12.179 C194.208,15.462,199.67,10,206.385,10z"></path> </g> </g></svg>