<svg fill="#dc2626" width="120px" height="120px" viewBox="0 0 24 24" xmlns="http://www.w3.org/2000/svg" stroke="#dc2626" transform="rotate(0)" stroke-width="0.24000000000000005"><g id="SVGRepo_bgCarrier" stroke-width="0"></g><g id="SVGRepo_tracerCarrier" stroke-linecap="round" stroke-linejoin="round"></g><g id="SVGRepo_iconCarrier"> <title></title> <g id="negotiation"> <path d="M20.5,2H8.5A1.5,1.5,0,0,0,7,3.5V5H3.5A1.5,1.5,0,0,0,2,6.5v15a.5.5,0,0,0,.31.46.43.43,0,0,0,.19,0,.47.47,0,0,0,.35-.15L5.71,19H14.5A1.5,1.5,0,0,0,16,17.5V17h2.29l2.86,2.85a.47.47,0,0,0,.35.15.43.43,0,0,0,.19,0A.5.5,0,0,0,22,19.5V3.5A1.5,1.5,0,0,0,20.5,2ZM15,17.5a.5.5,0,0,1-.5.5h-9a.41.41,0,0,0-.19,0,.36.36,0,0,0-.16.11L3,20.29V6.5A.5.5,0,0,1,3.5,6H7v9.5A1.5,1.5,0,0,0,8.5,17H15Zm6,.79-2.15-2.14A.47.47,0,0,0,18.5,16H8.5a.5.5,0,0,1-.5-.5V3.5A.5.5,0,0,1,8.5,3h12a.5.5,0,0,1,.5.5Z"></path> <path d="M15,9V6.74a1.29,1.29,0,0,1,1,.88.5.5,0,1,0,1-.24A2.38,2.38,0,0,0,15,5.72V5.5a.5.5,0,0,0-1,0v.21a2.27,2.27,0,0,0-2,2.12,2.31,2.31,0,0,0,.05.46A2.39,2.39,0,0,0,14,10v2.31a1.29,1.29,0,0,1-1-.88.52.52,0,0,0-.61-.37.51.51,0,0,0-.37.61A2.36,2.36,0,0,0,14,13.28v.22a.5.5,0,0,0,1,0v-.22A2.36,2.36,0,0,0,17,11.61a2.28,2.28,0,0,0,.05-.44A2.28,2.28,0,0,0,15,9Zm-1-.11a1.3,1.3,0,0,1-1-.88.78.78,0,0,1,0-.22,1.23,1.23,0,0,1,1-1.09Zm2,2.45a1.29,1.29,0,0,1-1,.88V10.07a1.23,1.23,0,0,1,1,1.1A.82.82,0,0,1,16,11.38Z"></path> </g> </g></svg>