<svg fill="#dc2626" height="100px" width="100px" version="1.2" baseProfile="tiny" id="Layer_1" xmlns="http://www.w3.org/2000/svg" xmlns:xlink="http://www.w3.org/1999/xlink" viewBox="-67 69 120 120" xml:space="preserve" stroke="#dc2626"><g id="SVGRepo_bgCarrier" stroke-width="0"></g><g id="SVGRepo_tracerCarrier" stroke-linecap="round" stroke-linejoin="round"></g><g id="SVGRepo_iconCarrier"> <path d="M-8.2,113c11.3,0,20.5-9.2,20.5-20.5S3.1,72-8.2,72c-11.3,0-20.5,9.2-20.5,20.5S-19.5,113-8.2,113z M-23,81.7 c0.5-0.3,0.9-0.9,1.8-0.7c0,0.2,0.1,0.4,0.1,0.5c0.4-0.1,0.6-0.4,0.7-0.9c0.6,0.6,0,1.6-0.2,2.1c2.1,0.3,1.4-1.2,1.6-2.4 c0.2-1.1,2.1-1.6,1.8-2.9c-0.6-0.1-1.2,0-1.7,0.3c0-0.1,0-0.2,0-0.2c0.7-0.5,1.3-0.9,2-1.3c1.2,0,1.4,1.1,0.2,1.5 c-0.4,1.4,1.2,0.6,1.6,0.4c0.5-0.2,0.4-0.3,1.1-0.4c0.5-0.1,1,0.1,1.5-0.2c-0.5,1.5-2.3,1.5-3.1,2.6c-1.2,1.7,1.8,1.2,2.8,0.4 c0.6-0.5,0.8-1.3,1.3-1.7c0.7-0.5,1.6-0.1,1.8-1c0-0.2-0.6-1.4-0.6-1.6c-0.4-0.9-0.8-0.7,0-1.7c-0.2,0-0.4,0-0.6,0 c0-0.1,0-0.2,0-0.2c1-0.2,2-0.3,3-0.3c0.9,0,1.9,0.1,2.8,0.2c0.7,0.4,1.2,1.1,1.8,1.7c1.8,1.8-0.9,1.2-0.7,2.5 c0.1,0.7,1,0.4,0.4,1.5c-0.4,0.6-1.2,0.7-1.1,1.5c-1.4,0.2-2.3-0.9-3.7-0.4c-0.7,0.3-1.5,0.7-1.6,1.4c-0.2,1.2,0.7,1.1,1.4,1.6 c0.6,0.5,0.5,0.5,0.4,1.6c-0.2,0.9-0.1,1.3-1,1.7c-0.4,0.2-1,0.1-1.4,0.3c-0.1,0.1-0.2,0.6-0.4,0.8c-0.5,0.4-2,0.2-1.6,1.3 c0.5,0.1,0.9-0.2,1.4-0.2c1.1,0,0.5,0.2,1.2,0.7c0.8,0.6,1.9,0.7,2.8,1.1c0.5,0.2,0.8,0.5,1.3,0.5c0.2,0.9-0.6,1.1-1.3,1.3 c-1.1,0.3-1.4,0.2-2-0.7c-0.8-1.2-0.9-0.8-2.4-1c-0.6,0-2.3-0.2-2.7-0.7c-0.5-0.6,0.1-1.5,0.6-1.9c0.9-0.6,1.1-0.5,1.6-1.3 c0.6-0.9,0.6-0.6,1.5-1c0.7-0.3,1.3-0.8,1.3-1.7c-0.5-0.1-0.7-0.5-0.7-1l-0.9-0.3c0.1,0.4,1.2,3.3-0.4,2.5c-0.6-0.3,0-3.1-1.7-2.6 c0.1,0.8-0.2,0.9-0.8,1.4c-0.8,0.7-0.9,0-0.6,1.1c0.2,0.7,0.7,0.6,0.4,1.5c-0.2,0.6-1,0.6-0.2,1.4c-0.4,0.1-0.8,0-1.1-0.1 c-0.9,0.9-0.4,1.2-0.8,2.4c-0.4,1.2-2,1.6-2.8,2.5c-1.4,1.5-1.8,5.4,0.2,6.5c1.6,0.9,3.2,0,4.7,0.6c1.1,0.4,1.4,1,1.5,2 c0.2,1.2,1.2,1.8,1.3,3.2c0.1,1.2,0,1.9,0.8,2.8c0.4,0.4,1.2,1.2,1.7,1.4c0.9,0.4,1.2,0,2-0.4c0.3-0.1,0.7-0.2,1-0.3 c0.7-0.4,0.4-0.1,0.8-0.7c0.4-0.5,0.5-1.2,1.1-1.8c0.7-0.7,0.9-0.9,1.2-1.8c0.3-0.7,0.3-1.4,0.6-2.1c0.3-0.7,1-1.3,1.4-1.9 c0.4-0.6,0.5-1.5,1.1-2c-0.6,0-1.8,0.3-2.4,0.1c-0.7-0.2-0.9-1-1.3-1.6c-0.8-1-2.1-2.6-2.1-4c0.5-0.1,2,2.6,2.3,3.1 c1.1,1.6,1.8,1.1,3.1,0.5c0.7-0.3,3.4-1.9,2.3-2.8c-0.7-0.6-3.7,1-3.4-0.8c1.2,0,2.6-0.1,3.8-0.4c0.6-0.1,1.1-0.5,1.6-0.4 c0.1,0,0.4,0.5,0.5,0.6c0.3,0.1,0.9,0,1.2,0c0.1,0.9,1.2,3.3,2.3,3c0.1-1.9,0-3.6,0.5-5.4c0.5-0.1,0.9,0,1.4,0c0,0.5,0,0.9,0,1.4 c0,10.2-8.3,18.5-18.4,18.5s-18.4-8.3-18.4-18.4C-26.6,88.5-25.3,84.7-23,81.7z M15.7,135.7c0-4.4,3.6-8,8-8s8,3.6,8,8s-3.6,8-8,8 S15.7,140.1,15.7,135.7z M13.9,163.6c-4.4,0-8-3.6-8-8c0-4.4,3.6-8,8-8s8,3.6,8,8C21.9,160,18.3,163.6,13.9,163.6z M10,175.3v13.9 H3.9v-12.3c0-0.5-0.4-1-1-1c-0.5,0-1,0.4-1,1v12.3h-19.8v-12.3c0-0.6-0.4-1-1-1c-0.5,0-1,0.4-1,1v12.3h-6.1v-14 c0-5.7,3.4-10.2,8.9-10.2h9h9C6.7,165.1,10.1,169.6,10,175.3z M3.3,143.7c-4.4,0-8-3.6-8-8s3.6-8,8-8s8,3.6,8,8S7.8,143.7,3.3,143.7 z M34.9,147.6c4.4,0,8,3.6,8,8s-3.6,8-8,8c-4.4,0-8-3.6-8-8S30.4,147.6,34.9,147.6z M53,175.3v13.9h-6.1v-12.3c0-0.5-0.4-1-1-1 c-0.5,0-1,0.4-1,1v12.3H25.2v-12.3c0-0.6-0.4-1-1-1c-0.5,0-1,0.4-1,1v12.3h-6.1v-14c0-5.7,3.4-10.2,8.9-10.2v0h9h9 C49.6,165,53.1,169.5,53,175.3z M-57,155.6c0-4.4,3.6-8,8-8c4.4,0,8,3.6,8,8c0,4.4-3.6,8-8,8C-53.4,163.6-57,160-57,155.6z M-31.2,175.3v13.9h-6.1v-12.3c0-0.5-0.4-1-1-1c-0.5,0-1,0.4-1,1v12.3H-59v-12.3c0-0.6-0.4-1-1-1c-0.5,0-1,0.4-1,1v12.3v0H-67v-14 c0-5.7,3.4-10.2,8.9-10.2h9h9C-34.6,165-31.1,169.5-31.2,175.3z M-15.9,155.6c0-4.4,3.6-8,8-8c4.4,0,8,3.6,8,8s-3.6,8-8,8 C-12.3,163.6-15.9,160-15.9,155.6z M-46.8,135.7c0-4.4,3.6-8,8-8s8,3.6,8,8s-3.6,8-8,8S-46.8,140.1-46.8,135.7z M-17.1,143.7 c-4.4,0-8-3.6-8-8s3.6-8,8-8c4.4,0,8,3.6,8,8S-12.7,143.7-17.1,143.7z M-27.9,163.6c-4.4,0-8-3.6-8-8c0-4.4,3.6-8,8-8s8,3.6,8,8 C-19.9,160-23.5,163.6-27.9,163.6z"></path> </g></svg>