<svg fill="#dc2626" version="1.1" id="Capa_1" xmlns="http://www.w3.org/2000/svg" xmlns:xlink="http://www.w3.org/1999/xlink" width="100px" height="100px" viewBox="0 0 585.225 585.225" xml:space="preserve" stroke="#dc2626"><g id="SVGRepo_bgCarrier" stroke-width="0"></g><g id="SVGRepo_tracerCarrier" stroke-linecap="round" stroke-linejoin="round"></g><g id="SVGRepo_iconCarrier"> <g> <g id="Layer_1_111_"> <g> <path d="M477.443,76.5h-114.75V15.3c0-8.925-7.649-15.3-16.574-15.3H237.743c-8.925,0-15.3,7.65-15.3,15.3v61.2h-114.75 c-15.3,0-26.775,12.75-26.775,26.775V558.45c0,15.3,11.475,26.774,26.775,26.774h369.75c15.301,0,26.775-11.475,26.775-26.774 V103.275C505.494,89.25,492.744,76.5,477.443,76.5z M189.293,121.125c0-8.925,7.65-15.3,16.575-15.3h17.85v12.75 c0,8.925,6.375,15.3,15.3,15.3h108.375c8.925,0,16.575-6.375,16.575-15.3V104.55h17.85c8.926,0,16.575,6.375,16.575,15.3v24.225 c0,8.925-7.649,15.3-16.575,15.3H204.593c-8.925,0-16.575-7.65-16.575-15.3L189.293,121.125L189.293,121.125z M441.744,540.6 H144.668c-10.2,0-19.125-8.925-19.125-19.125s8.925-19.125,19.125-19.125h297.075c10.199,0,19.125,8.925,19.125,19.125 C460.869,532.95,451.943,540.6,441.744,540.6z M462.143,402.899c0,15.301-12.75,28.051-26.774,28.051h-58.65v-42.075 c0-31.875-26.775-57.375-58.65-57.375h-51c-31.875,0-57.375,25.5-57.375,57.375v42.075h-59.925 c-15.3,0-26.775-12.75-26.775-28.051V230.775c0-15.3,11.475-26.775,26.775-26.775h284.325c15.3,0,26.775,12.75,26.775,26.775 L462.143,402.899L462.143,402.899z"></path> <circle cx="292.568" cy="270.3" r="51"></circle> </g> </g> </g> </g></svg>