<svg id='Wave_Arrows_24' width='48' height='48' viewBox='0 0 24 24' xmlns='http://www.w3.org/2000/svg' xmlns:xlink='http://www.w3.org/1999/xlink'><rect width='24' height='24' stroke='none' fill='#000000' opacity='0'/>


<g transform="matrix(0.04 0 0 0.04 12 12)" >
<g style="" >
<g transform="matrix(1 0 0 1 -119.01 8.2)" >
<path style="stroke: none; stroke-width: 1; stroke-dasharray: none; stroke-linecap: butt; stroke-dashoffset: 0; stroke-linejoin: miter; stroke-miterlimit: 4; fill: rgb(239,72,35); fill-rule: nonzero; opacity: 1;" transform=" translate(-136.99, -264.2)" d="M 197.9 411.9 C 191.3 393.4 170 382.79999999999995 151.2 382.79999999999995 C 141.1 382.79999999999995 131.6 385.4 126.1 394.69999999999993 C 121.39999999999999 402.69999999999993 119.39999999999999 411.79999999999995 118.3 420.8999999999999 C 118.7 421.5999999999999 119 422.3999999999999 119 423.3999999999999 C 119.7 437.8999999999999 127.5 450.2999999999999 140.8 456.2999999999999 C 153.4 461.9999999999999 169.4 462.1999999999999 181.4 454.9999999999999 C 195.6 446.4 203.6 428 197.9 411.9 z M 211 68.9 C 205.2 69.7 199.4 70.4 193.6 71 C 181.4 72.3 169.5 75.9 157.2 76.6 C 151.2 76.89999999999999 145.2 77.1 139.29999999999998 77.6 C 133.79999999999998 78.1 128.6 79.39999999999999 123.09999999999998 80.1 C 116.09999999999998 81.1 107.59999999999998 81.19999999999999 100.79999999999998 84.19999999999999 C 103.19999999999999 85.99999999999999 105.39999999999998 88.1 107.29999999999998 89.99999999999999 C 110.69999999999999 93.19999999999999 117.29999999999998 98.19999999999999 117.29999999999998 103.39999999999999 C 117.29999999999998 104.49999999999999 116.99999999999999 105.39999999999999 116.59999999999998 106.1 C 118.19999999999997 108.1 118.59999999999998 111.1 116.39999999999998 113.39999999999999 C 98.79999999999998 132.2 79.99999999999997 150.7 68.79999999999998 174.2 C 63.79999999999998 184.6 60.09999999999998 195.89999999999998 58.69999999999998 207.39999999999998 C 57.29999999999998 219.39999999999998 57.29999999999998 231.79999999999998 57.09999999999998 243.89999999999998 C 56.89999999999998 256.59999999999997 57.89999999999998 268.9 62.49999999999998 280.79999999999995 C 66.29999999999998 290.59999999999997 71.29999999999998 299.99999999999994 76.89999999999998 308.79999999999995 C 85.99999999999997 322.99999999999994 97.19999999999997 336.59999999999997 111.09999999999998 346.4 C 104.59999999999998 330.9 97.79999999999998 315.4 95.39999999999998 298.59999999999997 C 92.79999999999998 281.09999999999997 93.39999999999998 262.49999999999994 97.29999999999998 245.19999999999996 C 100.79999999999998 229.29999999999995 107.69999999999999 214.19999999999996 118.39999999999998 201.79999999999995 C 131.2 186.99999999999994 148.29999999999998 175.19999999999996 166.29999999999998 167.59999999999997 C 168.39999999999998 164.69999999999996 173.29999999999998 163.79999999999995 175.7 167.79999999999995 C 178 171.69999999999996 183.79999999999998 173.39999999999995 187.5 175.69999999999996 C 188.9 176.59999999999997 190.2 177.69999999999996 191.4 178.79999999999995 C 193.5 171.39999999999995 196.4 164.29999999999995 198.70000000000002 156.99999999999994 C 202.60000000000002 144.19999999999993 203.9 130.89999999999995 207.00000000000003 117.99999999999994 C 208.70000000000002 110.89999999999995 210.10000000000002 103.69999999999995 211.40000000000003 96.49999999999994 C 212.50000000000003 90.59999999999994 214.30000000000004 84.49999999999994 214.90000000000003 78.49999999999994 C 215.30000000000004 74.89999999999995 216.10000000000002 71.39999999999995 216.90000000000003 67.89999999999995 C 214.9 68.4 213 68.6 211 68.9 z" stroke-linecap="round" />
</g>
<g transform="matrix(1 0 0 1 47.26 -8.3)" >
<path style="stroke: none; stroke-width: 1; stroke-dasharray: none; stroke-linecap: butt; stroke-dashoffset: 0; stroke-linejoin: miter; stroke-miterlimit: 4; fill: rgb(246,133,31); fill-rule: nonzero; opacity: 1;" transform=" translate(-303.26, -247.7)" d="M 435.6 219.9 C 431 216.3 426.40000000000003 212.6 421.90000000000003 208.9 C 412.40000000000003 201.1 401.50000000000006 195.20000000000002 392.40000000000003 186.9 C 388.00000000000006 182.9 383.6 178.70000000000002 379.1 174.8 C 374.90000000000003 171.20000000000002 370.3 168.4 366 165 C 360.4 160.7 354.4 154.7 347.4 152 C 347.79999999999995 155 347.79999999999995 158 347.9 160.7 C 348 165.39999999999998 349.09999999999997 173.6 345.29999999999995 177.2 C 344.49999999999994 178 343.69999999999993 178.39999999999998 342.79999999999995 178.6 C 342.49999999999994 181.1 340.69999999999993 183.5 337.4 183.6 C 311.7 184.2 285.29999999999995 183.79999999999998 260.7 192.29999999999998 C 249.79999999999998 196.1 239.1 201.29999999999998 229.89999999999998 208.39999999999998 C 220.39999999999998 215.79999999999998 211.49999999999997 224.49999999999997 202.79999999999998 232.89999999999998 C 193.7 241.7 185.49999999999997 250.99999999999997 180.29999999999998 262.7 C 175.99999999999997 272.3 172.79999999999998 282.4 170.49999999999997 292.59999999999997 C 166.79999999999998 309.09999999999997 164.89999999999998 326.59999999999997 167.59999999999997 343.4 C 174.09999999999997 327.9 180.39999999999998 312.2 190.59999999999997 298.7 C 201.29999999999995 284.59999999999997 214.89999999999998 272 229.99999999999997 262.59999999999997 C 243.79999999999998 253.99999999999997 259.4 248.19999999999996 275.79999999999995 247.19999999999996 C 295.29999999999995 245.99999999999997 315.79999999999995 249.79999999999995 333.79999999999995 257.4 C 337.29999999999995 256.9 341.4 259.79999999999995 340.19999999999993 264.2 C 338.99999999999994 268.59999999999997 341.8999999999999 273.9 342.79999999999995 278.2 C 343.09999999999997 279.8 343.19999999999993 281.5 343.29999999999995 283.2 C 349.99999999999994 279.5 357.19999999999993 276.59999999999997 363.99999999999994 273.09999999999997 C 375.8999999999999 266.9 386.19999999999993 258.49999999999994 397.59999999999997 251.59999999999997 C 403.79999999999995 247.79999999999995 409.9 243.79999999999995 415.99999999999994 239.69999999999996 C 420.99999999999994 236.29999999999995 426.59999999999997 233.29999999999995 431.29999999999995 229.59999999999997 C 434.09999999999997 227.39999999999998 437.19999999999993 225.49999999999997 440.19999999999993 223.59999999999997 C 438.7 222.3 437.2 221.1 435.6 219.9 z" stroke-linecap="round" />
</g>
<g transform="matrix(1 0 0 1 92.6 145.76)" >
<path style="stroke: none; stroke-width: 1; stroke-dasharray: none; stroke-linecap: butt; stroke-dashoffset: 0; stroke-linejoin: miter; stroke-miterlimit: 4; fill: rgb(254,191,16); fill-rule: nonzero; opacity: 1;" transform=" translate(-348.6, -401.76)" d="M 484.3 480.5 C 483.8 474.7 483.5 468.8 483.1 463 C 482.40000000000003 450.7 479.5 438.7 479.40000000000003 426.4 C 479.40000000000003 420.4 479.6 414.4 479.40000000000003 408.4 C 479.20000000000005 402.9 478.20000000000005 397.59999999999997 477.8 392.09999999999997 C 477.2 384.99999999999994 477.5 376.59999999999997 474.90000000000003 369.7 C 472.90000000000003 372 470.70000000000005 374 468.70000000000005 375.9 C 465.30000000000007 379.09999999999997 460.00000000000006 385.5 454.80000000000007 385.2 C 453.70000000000005 385.09999999999997 452.80000000000007 384.8 452.1000000000001 384.3 C 450.00000000000006 385.8 447.00000000000006 386.1 444.80000000000007 383.7 C 427.00000000000006 365.09999999999997 409.6000000000001 345.3 386.70000000000005 332.8 C 376.6 327.3 365.50000000000006 322.90000000000003 354.1 320.90000000000003 C 342.20000000000005 318.8 329.8 318.20000000000005 317.8 317.40000000000003 C 305.2 316.6 292.8 316.8 280.6 320.8 C 270.70000000000005 324.1 261 328.5 251.90000000000003 333.7 C 237.20000000000005 342 223.00000000000003 352.5 212.50000000000003 365.8 C 228.30000000000004 360.2 244.20000000000002 354.2 261 352.7 C 278.7 351.09999999999997 297.2 352.7 314.3 357.5 C 330 361.9 344.7 369.5 356.5 380.9 C 370.6 394.5 381.5 412.2 388.1 430.59999999999997 C 390.8 432.9 391.5 437.79999999999995 387.40000000000003 439.9 C 383.3 442 381.40000000000003 447.7 378.8 451.29999999999995 C 377.8 452.69999999999993 376.7 453.79999999999995 375.40000000000003 454.99999999999994 C 382.6 457.49999999999994 389.6 460.79999999999995 396.8 463.3999999999999 C 409.40000000000003 467.99999999999994 422.5 469.99999999999994 435.3 473.7999999999999 C 442.3 475.8999999999999 449.40000000000003 477.5999999999999 456.5 479.3999999999999 C 462.4 480.7999999999999 468.3 482.8999999999999 474.3 483.8999999999999 C 477.8 484.49999999999994 481.3 485.49999999999994 484.7 486.49999999999994 C 484.6 484.4 484.5 482.5 484.3 480.5 z" stroke-linecap="round" />
</g>
<g transform="matrix(1 0 0 1 -117.91 -48.3)" >
<path style="stroke: none; stroke-width: 1; stroke-dasharray: none; stroke-linecap: butt; stroke-dashoffset: 0; stroke-linejoin: miter; stroke-miterlimit: 4; fill: rgb(0,0,0); fill-rule: nonzero; opacity: 1;" transform=" translate(-138.09, -207.7)" d="M 227.9 53.7 C 224.8 49.7 220 52.5 219 56.5 C 215.9 56.7 212.5 57.6 210.2 58 C 195.1 60.3 180.2 62 165.2 64.8 C 158 66.2 150.39999999999998 66 143.1 66.5 C 135.9 66.9 129 68.1 121.89999999999999 69.4 C 109.69999999999999 71.5 96.39999999999999 71.30000000000001 87.1 80.7 C 84.8 83 85.19999999999999 85.9 86.8 87.9 C 87.6 89.5 89.1 90.80000000000001 91.3 91 C 89.6 90.8 93 92.3 93.8 92.9 C 95.89999999999999 94.4 97.8 96.2 99.7 97.9 C 101.4 99.5 103 101.10000000000001 104.60000000000001 102.80000000000001 C 105.30000000000001 103.50000000000001 106.00000000000001 104.30000000000001 106.7 105.10000000000001 C 106.8 105.2 106.8 105.2 106.9 105.30000000000001 C 107.10000000000001 106.00000000000001 107.5 106.60000000000001 107.9 107.00000000000001 C 89.9 126.10000000000002 71.30000000000001 145 59.60000000000001 168.8 C 54.10000000000001 180 50.20000000000001 192 48.400000000000006 204.3 C 46.50000000000001 217.3 46.7 230.8 46.400000000000006 243.9 C 46.10000000000001 257.5 47.300000000000004 271 52.2 283.8 C 56.300000000000004 294.5 61.6 304.8 67.7 314.5 C 79.9 333.9 96.30000000000001 352.5 117 363 C 119.2 364.1 121.4 363.7 122.9 362.5 C 125.80000000000001 362.1 128.3 359.7 126.9 356.1 C 120.2 338.6 111.7 321.6 107.60000000000001 303.20000000000005 C 103.80000000000001 286.50000000000006 104.4 268.1 107.50000000000001 251.30000000000004 C 110.30000000000001 236.20000000000005 116.40000000000002 221.80000000000004 126.30000000000001 210.00000000000006 C 137.9 196.20000000000005 153.8 185.40000000000006 170.3 178.20000000000005 C 173 180.50000000000006 176.3 182.30000000000004 179.5 184.00000000000006 C 182.9 185.90000000000006 185.6 188.60000000000005 188.3 191.20000000000005 C 188.4 192.00000000000006 188.70000000000002 192.90000000000003 189.20000000000002 193.60000000000005 C 189.70000000000002 199.70000000000005 199.20000000000002 199.80000000000004 200.10000000000002 193.60000000000005 C 201.20000000000002 192.10000000000005 201.3 190.10000000000005 200.60000000000002 188.30000000000004 C 202.3 177.10000000000005 207.70000000000002 166.40000000000003 210.70000000000002 155.50000000000006 C 214.4 142.10000000000005 216.20000000000002 128.00000000000006 219.10000000000002 114.40000000000006 C 221.8 102.00000000000006 223.8 89.30000000000007 226.20000000000002 76.80000000000007 C 227.4 70 232.6 59.8 227.9 53.7 z M 214.8 78.7 C 214.20000000000002 84.7 212.4 90.8 211.3 96.7 C 210 103.9 208.60000000000002 111 206.9 118.2 C 203.9 131.2 202.6 144.4 198.6 157.2 C 196.4 164.5 193.4 171.7 191.29999999999998 179 C 190.1 177.9 188.89999999999998 176.8 187.39999999999998 175.9 C 183.7 173.5 177.89999999999998 171.9 175.59999999999997 168 C 173.29999999999995 164 168.29999999999995 164.9 166.19999999999996 167.8 C 148.19999999999996 175.4 131.09999999999997 187.3 118.29999999999995 202 C 107.59999999999995 214.4 100.69999999999996 229.5 97.19999999999996 245.4 C 93.29999999999995 262.7 92.79999999999995 281.3 95.29999999999995 298.8 C 97.69999999999996 315.5 104.59999999999995 331 110.99999999999996 346.6 C 97.3 336.8 86.1 323.2 77 309 C 71.3 300.2 66.4 290.8 62.6 281 C 57.9 269.1 57 256.7 57.2 244.1 C 57.400000000000006 232 57.400000000000006 219.6 58.800000000000004 207.6 C 60.1 196.1 63.900000000000006 184.79999999999998 68.9 174.39999999999998 C 80.10000000000001 150.89999999999998 98.9 132.39999999999998 116.5 113.59999999999998 C 118.7 111.19999999999997 118.3 108.19999999999997 116.7 106.29999999999998 C 117.10000000000001 105.59999999999998 117.4 104.59999999999998 117.4 103.59999999999998 C 117.4 98.39999999999998 110.80000000000001 93.39999999999998 107.4 90.19999999999997 C 105.4 88.29999999999997 103.2 86.19999999999997 100.9 84.39999999999998 C 107.7 81.39999999999998 116.10000000000001 81.19999999999997 123.2 80.29999999999998 C 128.6 79.49999999999999 133.9 78.19999999999999 139.4 77.79999999999998 C 145.4 77.29999999999998 151.4 77.09999999999998 157.3 76.79999999999998 C 169.60000000000002 76.09999999999998 181.5 72.49999999999999 193.70000000000002 71.19999999999999 C 199.50000000000003 70.6 205.3 69.89999999999999 211.10000000000002 69.1 C 213.00000000000003 68.8 215.00000000000003 68.6 216.90000000000003 68.39999999999999 C 216 71.6 215.2 75.1 214.8 78.7 z" stroke-linecap="round" />
</g>
<g transform="matrix(1 0 0 1 50.83 -4.2)" >
<path style="stroke: none; stroke-width: 1; stroke-dasharray: none; stroke-linecap: butt; stroke-dashoffset: 0; stroke-linejoin: miter; stroke-miterlimit: 4; fill: rgb(0,0,0); fill-rule: nonzero; opacity: 1;" transform=" translate(-306.83, -251.8)" d="M 450.1 216.9 C 447.8 214.9 444.8 213.1 442.90000000000003 211.6 C 430.70000000000005 202.5 419.00000000000006 193 406.50000000000006 184.29999999999998 C 400.50000000000006 180.1 395.30000000000007 174.6 389.80000000000007 169.7 C 384.4000000000001 164.89999999999998 378.70000000000005 160.79999999999998 372.9000000000001 156.6 C 362.80000000000007 149.4 353.7000000000001 139.7 340.4000000000001 139.7 C 337.1000000000001 139.7 335.30000000000007 142 335.0000000000001 144.5 C 334.4000000000001 146.2 334.60000000000014 148.1 335.9000000000001 149.9 C 334.80000000000007 148.5 336.1000000000001 152 336.30000000000007 153 C 336.70000000000005 155.5 336.80000000000007 158.1 336.9000000000001 160.7 C 337.0000000000001 163 337.0000000000001 165.29999999999998 336.9000000000001 167.6 C 336.9000000000001 168.6 336.80000000000007 169.7 336.7000000000001 170.7 C 336.7000000000001 170.79999999999998 336.7000000000001 170.89999999999998 336.7000000000001 171 C 336.4000000000001 171.6 336.2000000000001 172.3 336.2000000000001 172.9 C 310.0000000000001 173.5 283.4000000000001 173.5 258.30000000000007 181.8 C 246.50000000000006 185.70000000000002 235.20000000000007 191.3 225.10000000000008 198.70000000000002 C 214.50000000000009 206.4 205.00000000000009 216.00000000000003 195.50000000000009 225.00000000000003 C 185.60000000000008 234.30000000000004 176.8000000000001 244.60000000000002 171.10000000000008 257.1 C 166.30000000000007 267.6 162.70000000000007 278.5 160.10000000000008 289.70000000000005 C 154.80000000000007 312.00000000000006 153.10000000000008 336.70000000000005 160.10000000000008 358.80000000000007 C 160.9000000000001 361.20000000000005 162.70000000000007 362.4000000000001 164.60000000000008 362.70000000000005 C 167.00000000000009 364.50000000000006 170.4000000000001 364.50000000000006 172.00000000000009 361.1 C 179.8000000000001 344 186.00000000000009 326.1 196.20000000000007 310.20000000000005 C 205.50000000000009 295.80000000000007 219.00000000000009 283.30000000000007 233.10000000000008 273.80000000000007 C 245.80000000000007 265.20000000000005 260.4000000000001 259.4000000000001 275.7000000000001 258.20000000000005 C 293.6000000000001 256.80000000000007 312.5000000000001 260.50000000000006 329.2000000000001 267.30000000000007 C 329.4000000000001 270.9000000000001 330.5000000000001 274.4000000000001 331.5000000000001 277.9000000000001 C 332.60000000000014 281.7000000000001 332.4000000000001 285.5000000000001 332.5000000000001 289.30000000000007 C 332.0000000000001 290.00000000000006 331.60000000000014 290.80000000000007 331.4000000000001 291.6000000000001 C 327.4000000000001 296.2000000000001 334.0000000000001 303.1000000000001 339.0000000000001 299.4000000000001 C 340.9000000000001 299.2000000000001 342.4000000000001 297.80000000000007 343.10000000000014 296.1000000000001 C 352.3000000000001 289.4000000000001 363.70000000000016 285.80000000000007 373.60000000000014 280.30000000000007 C 385.8000000000001 273.50000000000006 397.0000000000001 264.9000000000001 408.8000000000001 257.50000000000006 C 419.60000000000014 250.70000000000005 430.0000000000001 243.20000000000005 440.5000000000001 236.20000000000005 C 446.10000000000014 232.40000000000003 457.0000000000001 229.00000000000006 458.10000000000014 221.30000000000004 C 459 216.3 453.6 214.8 450.1 216.9 z M 431.3 229.5 C 426.6 233.3 421 236.3 416 239.6 C 409.9 243.7 403.9 247.7 397.6 251.5 C 386.20000000000005 258.4 375.8 266.8 364 273 C 357.2 276.5 350 279.4 343.3 283.1 C 343.3 281.40000000000003 343.2 279.8 342.8 278.1 C 341.90000000000003 273.8 339 268.5 340.2 264.1 C 341.4 259.6 337.3 256.8 333.8 257.3 C 315.8 249.8 295.3 245.9 275.8 247.10000000000002 C 259.40000000000003 248.10000000000002 243.9 253.90000000000003 230 262.5 C 214.9 271.9 201.3 284.5 190.6 298.6 C 180.4 312.1 174.1 327.8 167.6 343.3 C 164.9 326.5 166.7 309 170.5 292.5 C 172.8 282.3 176.1 272.2 180.3 262.6 C 185.5 250.90000000000003 193.70000000000002 241.60000000000002 202.8 232.8 C 211.5 224.5 220.4 215.70000000000002 229.9 208.3 C 239 201.20000000000002 249.8 195.9 260.7 192.20000000000002 C 285.3 183.70000000000002 311.7 184.20000000000002 337.4 183.50000000000003 C 340.7 183.40000000000003 342.5 181.00000000000003 342.79999999999995 178.50000000000003 C 343.59999999999997 178.30000000000004 344.49999999999994 177.80000000000004 345.29999999999995 177.10000000000002 C 349.09999999999997 173.50000000000003 347.99999999999994 165.20000000000002 347.9 160.60000000000002 C 347.79999999999995 157.90000000000003 347.79999999999995 154.8 347.4 151.90000000000003 C 354.29999999999995 154.60000000000002 360.29999999999995 160.50000000000003 366 164.90000000000003 C 370.4 168.20000000000005 375 171.10000000000002 379.1 174.70000000000005 C 383.6 178.60000000000005 388 182.80000000000004 392.40000000000003 186.80000000000004 C 401.50000000000006 195.00000000000003 412.40000000000003 201.00000000000003 421.90000000000003 208.80000000000004 C 426.40000000000003 212.50000000000003 431.00000000000006 216.20000000000005 435.6 219.80000000000004 C 437.20000000000005 221.00000000000003 438.70000000000005 222.20000000000005 440.20000000000005 223.50000000000003 C 437.1 225.4 434.1 227.3 431.3 229.5 z" stroke-linecap="round" />
</g>
<g transform="matrix(1 0 0 1 47.88 146.86)" >
<path style="stroke: none; stroke-width: 1; stroke-dasharray: none; stroke-linecap: butt; stroke-dashoffset: 0; stroke-linejoin: miter; stroke-miterlimit: 4; fill: rgb(0,0,0); fill-rule: nonzero; opacity: 1;" transform=" translate(-303.88, -402.86)" d="M 496.3 489.2 C 496.3 486.09999999999997 495.5 482.7 495.3 480.3 C 493.90000000000003 465.1 493 450.1 491 435 C 490 427.7 490.6 420.2 490.5 412.8 C 490.5 405.6 489.6 398.6 488.8 391.5 C 487.40000000000003 379.2 488.3 365.9 479.40000000000003 356.1 C 477.20000000000005 353.70000000000005 474.3 353.90000000000003 472.20000000000005 355.40000000000003 C 470.6 356.1 469.20000000000005 357.50000000000006 468.80000000000007 359.70000000000005 C 469.1000000000001 358.00000000000006 467.4000000000001 361.30000000000007 466.80000000000007 362.1 C 465.20000000000005 364.1 463.30000000000007 365.90000000000003 461.50000000000006 367.70000000000005 C 459.80000000000007 369.30000000000007 458.1000000000001 370.90000000000003 456.40000000000003 372.30000000000007 C 455.6 373.00000000000006 454.8 373.6000000000001 454.00000000000006 374.20000000000005 C 453.90000000000003 374.30000000000007 453.90000000000003 374.30000000000007 453.80000000000007 374.30000000000007 C 453.1000000000001 374.50000000000006 452.50000000000006 374.80000000000007 452.00000000000006 375.20000000000005 C 433.90000000000003 356.20000000000005 416.00000000000006 336.6 392.90000000000003 323.6 C 382.00000000000006 317.5 370.3 313 358.1 310.5 C 345.20000000000005 307.9 331.70000000000005 307.3 318.70000000000005 306.4 C 305.20000000000005 305.4 291.6 305.79999999999995 278.6 310 C 267.6 313.5 257.1 318.2 247.10000000000002 323.8 C 227.10000000000002 335 207.60000000000002 350.3 196.00000000000003 370.40000000000003 C 194.80000000000004 372.6 195.10000000000002 374.70000000000005 196.20000000000002 376.40000000000003 C 196.50000000000003 379.40000000000003 198.70000000000002 381.90000000000003 202.4 380.8 C 220.3 375 237.7 367.5 256.3 364.40000000000003 C 273.2 361.50000000000006 291.5 363.1 308.1 367.20000000000005 C 323 370.80000000000007 337.1 377.70000000000005 348.3 388.20000000000005 C 361.40000000000003 400.50000000000006 371.40000000000003 417.00000000000006 377.7 433.80000000000007 C 375.2 436.4000000000001 373.3 439.6000000000001 371.4 442.70000000000005 C 369.29999999999995 446.00000000000006 366.5 448.50000000000006 363.7 451.1 C 362.9 451.20000000000005 362 451.40000000000003 361.3 451.90000000000003 C 355.2 452.1 354.6 461.6 360.7 462.8 C 362.09999999999997 464 364.2 464.2 366 463.6 C 377.1 465.90000000000003 387.5 471.90000000000003 398.2 475.5 C 411.4 479.9 425.4 482.4 438.8 486.1 C 451.1 489.5 463.6 492.20000000000005 475.90000000000003 495.20000000000005 C 482.50000000000006 496.80000000000007 492.40000000000003 502.50000000000006 498.8 498.20000000000005 C 502.8 495.4 500.2 490.4 496.3 489.2 z M 474.3 483.8 C 468.3 482.90000000000003 462.40000000000003 480.8 456.5 479.3 C 449.4 477.6 442.3 475.8 435.3 473.7 C 422.5 470 409.3 467.9 396.8 463.3 C 389.6 460.7 382.6 457.3 375.40000000000003 454.90000000000003 C 376.6 453.8 377.8 452.6 378.8 451.20000000000005 C 381.3 447.70000000000005 383.3 441.90000000000003 387.40000000000003 439.80000000000007 C 391.50000000000006 437.70000000000005 390.90000000000003 432.70000000000005 388.1 430.50000000000006 C 381.5 412.1000000000001 370.6 394.40000000000003 356.5 380.80000000000007 C 344.7 369.4000000000001 330 361.80000000000007 314.3 357.4000000000001 C 297.2 352.6000000000001 278.7 351.0000000000001 261 352.6000000000001 C 244.2 354.1000000000001 228.3 360.1000000000001 212.5 365.7000000000001 C 223.1 352.4000000000001 237.2 341.9000000000001 251.9 333.6000000000001 C 261 328.4000000000001 270.7 324.00000000000006 280.6 320.7000000000001 C 292.70000000000005 316.7000000000001 305.1 316.4000000000001 317.8 317.3000000000001 C 329.8 318.10000000000014 342.2 318.8000000000001 354.1 320.8000000000001 C 365.5 322.8000000000001 376.6 327.10000000000014 386.70000000000005 332.7000000000001 C 409.6 345.2000000000001 427.00000000000006 365.0000000000001 444.80000000000007 383.6000000000001 C 447.1000000000001 386.00000000000006 450.00000000000006 385.7000000000001 452.1000000000001 384.2000000000001 C 452.80000000000007 384.7000000000001 453.7000000000001 385.0000000000001 454.80000000000007 385.1000000000001 C 460.00000000000006 385.4000000000001 465.4000000000001 379.1000000000001 468.70000000000005 375.80000000000007 C 470.70000000000005 373.9000000000001 472.90000000000003 371.9000000000001 474.90000000000003 369.6000000000001 C 477.6 376.50000000000006 477.20000000000005 385.00000000000006 477.8 392.00000000000006 C 478.3 397.50000000000006 479.3 402.80000000000007 479.40000000000003 408.30000000000007 C 479.6 414.30000000000007 479.40000000000003 420.30000000000007 479.40000000000003 426.30000000000007 C 479.50000000000006 438.6000000000001 482.40000000000003 450.6000000000001 483.1 462.9000000000001 C 483.40000000000003 468.7000000000001 483.8 474.6000000000001 484.3 480.4000000000001 C 484.5 482.4000000000001 484.6 484.30000000000007 484.7 486.30000000000007 C 481.3 485.4 477.9 484.4 474.3 483.8 z M 188.6 383.6 C 173.5 373.3 151.89999999999998 368 134.2 374.1 C 114.79999999999998 380.70000000000005 108.99999999999999 403.6 106.99999999999999 421.70000000000005 C 106.79999999999998 423.30000000000007 107.29999999999998 424.6 107.99999999999999 425.70000000000005 C 110.59999999999998 459.40000000000003 145.29999999999998 478.20000000000005 176.5 468.90000000000003 C 192.4 464.20000000000005 203.9 451.70000000000005 208.6 436.00000000000006 C 214.7 415.7 205.7 395.3 188.6 383.6 z M 181.4 454.9 C 169.4 462.09999999999997 153.3 461.9 140.8 456.2 C 127.50000000000001 450.2 119.70000000000002 437.7 119.00000000000001 423.3 C 118.90000000000002 422.3 118.70000000000002 421.5 118.30000000000001 420.8 C 119.50000000000001 411.7 121.50000000000001 402.6 126.10000000000001 394.6 C 131.5 385.3 141 382.70000000000005 151.20000000000002 382.70000000000005 C 170.00000000000003 382.80000000000007 191.3 393.40000000000003 197.90000000000003 411.80000000000007 C 203.6 428 195.6 446.4 181.4 454.9 z" stroke-linecap="round" />
</g>
</g>
</g>
</svg>