<?xml version="1.0" standalone="no"?>
<!DOCTYPE svg PUBLIC "-//W3C//DTD SVG 20010904//EN"
 "http://www.w3.org/TR/2001/REC-SVG-20010904/DTD/svg10.dtd">
<svg version="1.0" xmlns="http://www.w3.org/2000/svg"
 width="895.000000pt" height="1280.000000pt" viewBox="0 0 895.000000 1280.000000"
 preserveAspectRatio="xMidYMid meet">
<metadata>
Created by potrace 1.15, written by Peter Selinger 2001-2017
</metadata>
<g transform="translate(0.000000,1280.000000) scale(0.100000,-0.100000)"
fill="#000000" stroke="none">
<path d="M5030 12785 c-25 -8 -93 -51 -153 -95 -59 -44 -115 -80 -124 -80 -9
0 -45 18 -81 41 -35 23 -89 50 -120 60 -107 37 -448 52 -547 25 -27 -8 -102
-34 -165 -59 -170 -67 -190 -70 -328 -51 -130 18 -256 14 -336 -11 -26 -8
-107 -41 -180 -74 -155 -69 -252 -101 -310 -101 -58 0 -150 -25 -209 -58 -28
-15 -85 -65 -131 -114 -88 -94 -128 -118 -200 -118 -58 0 -149 -30 -266 -88
-74 -37 -101 -56 -122 -87 -38 -56 -67 -152 -77 -253 -9 -82 -23 -129 -86
-280 -19 -45 -27 -87 -31 -150 -3 -48 -7 -102 -10 -119 l-5 -33 -69 35 c-178
90 -303 60 -382 -91 -63 -120 -160 -436 -174 -564 -6 -51 -3 -61 35 -132 47
-88 51 -129 27 -245 -19 -89 -40 -146 -67 -182 -46 -62 -36 -169 36 -401 61
-195 71 -240 54 -251 -8 -5 -53 -6 -100 -2 -56 4 -98 2 -122 -6 -81 -27 -136
-104 -137 -192 0 -54 44 -216 98 -361 79 -209 107 -243 272 -328 92 -47 129
-74 118 -86 -32 -31 -574 -30 -728 1 -158 32 -285 2 -363 -84 -28 -32 -37 -51
-43 -97 -10 -83 2 -311 20 -369 9 -27 31 -97 50 -155 19 -58 47 -159 62 -225
36 -159 85 -307 145 -433 26 -57 51 -120 55 -140 15 -87 135 -299 238 -423 59
-73 184 -175 283 -232 125 -72 328 -148 513 -192 41 -10 94 -26 118 -36 37
-16 42 -21 33 -38 -25 -45 -228 -147 -361 -181 -194 -48 -315 -100 -353 -152
-26 -35 -12 -55 48 -63 49 -8 599 11 790 26 176 15 280 43 540 148 288 116
425 144 466 95 18 -22 -8 -43 -130 -109 -57 -31 -120 -68 -140 -84 -52 -41
-141 -83 -254 -121 -151 -49 -201 -106 -116 -131 55 -17 179 0 334 47 66 19
255 69 420 110 165 41 356 94 425 116 125 42 324 137 455 218 132 81 124 79
143 50 10 -13 36 -46 59 -72 23 -26 40 -54 38 -61 -20 -50 -355 -184 -733
-291 -170 -48 -293 -76 -587 -131 -104 -20 -219 -42 -255 -50 -36 -8 -171 -26
-300 -40 -129 -14 -250 -30 -269 -35 -44 -12 -62 -2 -102 58 -55 82 -68 92
-115 92 -62 0 -69 -14 -66 -132 4 -135 -8 -159 -141 -274 -155 -135 -157 -137
-157 -181 0 -22 5 -44 12 -51 17 -17 137 -15 248 4 l94 16 21 -25 c12 -13 39
-71 59 -128 47 -128 92 -207 189 -327 41 -51 94 -130 118 -175 24 -45 71 -113
103 -152 85 -102 116 -172 128 -297 15 -158 15 -159 64 -243 25 -44 58 -114
74 -155 16 -41 40 -102 54 -135 14 -33 26 -66 26 -72 0 -23 -64 -14 -226 33
-228 65 -274 67 -589 16 -137 -22 -290 -45 -340 -52 -49 -6 -132 -23 -182 -37
-51 -14 -100 -23 -108 -19 -25 9 -17 42 23 93 94 117 167 167 338 229 51 18
130 51 176 73 97 46 123 53 320 91 218 42 274 74 219 125 -59 52 -421 16 -611
-61 -47 -19 -139 -56 -205 -81 -66 -25 -144 -61 -172 -79 -29 -19 -81 -48
-115 -65 -83 -41 -121 -78 -174 -170 l-44 -76 -68 -6 c-37 -4 -158 -10 -270
-13 -234 -8 -222 -2 -222 -107 0 -60 2 -67 30 -90 16 -14 62 -37 102 -52 167
-63 356 -172 430 -248 27 -28 44 -60 63 -119 51 -156 86 -212 214 -338 110
-109 181 -164 314 -241 31 -18 56 -38 54 -43 -2 -6 -39 -23 -83 -38 -167 -59
-216 -81 -301 -135 -48 -30 -111 -75 -139 -99 -86 -73 -133 -198 -85 -224 25
-13 101 -13 211 0 134 16 450 38 765 55 160 9 313 18 340 21 155 16 236 30
380 64 215 52 221 52 240 34 22 -23 50 -79 116 -237 31 -76 64 -149 73 -162
29 -44 132 -45 161 -1 19 28 45 154 45 217 0 27 -12 82 -26 123 -59 172 -2
173 258 3 l117 -77 168 0 c255 0 388 14 495 51 78 27 100 31 157 26 87 -8 185
-39 244 -78 64 -42 180 -159 212 -213 30 -51 31 -109 3 -114 -9 -2 -70 18
-135 44 -102 41 -127 47 -188 47 -79 0 -226 -33 -284 -63 -53 -27 -84 -66 -70
-91 13 -26 53 -44 124 -59 83 -16 192 -71 253 -125 28 -26 87 -88 131 -139
l80 -93 -29 -114 c-36 -138 -39 -229 -10 -276 50 -82 185 -140 303 -131 81 7
113 22 153 75 73 95 116 262 134 513 15 220 50 325 173 514 98 150 176 220
283 252 103 31 184 -16 444 -256 234 -215 279 -247 390 -276 85 -22 175 -62
308 -138 143 -81 321 -150 472 -181 41 -9 161 -20 265 -26 105 -5 226 -14 270
-19 127 -16 238 -12 328 11 69 17 105 20 248 17 l167 -3 39 31 c61 48 83 103
83 204 -1 102 -6 126 -60 255 -57 137 -114 327 -150 501 -19 94 -40 165 -57
196 -37 68 -266 304 -372 383 -152 115 -354 200 -663 279 -220 57 -452 69
-824 44 -269 -18 -288 -17 -292 8 -2 15 12 35 50 68 62 54 226 171 350 249
163 102 426 202 681 257 78 17 183 42 232 55 152 41 267 54 610 70 447 20 510
31 658 107 87 45 156 113 176 174 6 22 15 76 18 120 8 111 -17 192 -97 312
-33 50 -91 155 -129 234 -79 164 -126 218 -234 268 -85 40 -283 78 -468 90
-184 12 -245 21 -492 66 -104 19 -208 34 -231 34 -67 0 -167 -56 -271 -150
-106 -98 -138 -116 -192 -111 -45 4 53 119 134 159 25 12 38 28 53 69 27 71
25 105 -5 141 -14 17 -25 35 -25 41 0 19 40 32 123 41 45 5 111 18 147 30 84
28 289 126 365 175 146 93 344 324 438 512 49 96 74 192 92 348 22 189 42 252
155 490 87 183 110 243 110 286 0 53 -80 209 -129 251 -83 70 -428 255 -558
299 -64 21 -85 41 -66 60 6 6 54 28 107 49 185 74 348 206 476 386 140 197
245 304 431 444 181 136 199 167 199 349 0 86 -4 112 -21 149 -25 50 -153 167
-263 239 -39 25 -111 79 -161 118 -112 90 -179 133 -307 197 -151 75 -231 92
-403 86 -124 -4 -161 -10 -312 -48 -95 -24 -175 -41 -179 -37 -10 10 18 116
86 331 76 240 91 311 97 472 6 141 -5 268 -38 434 -41 206 -100 352 -269 665
-116 217 -214 467 -264 677 -26 108 -50 157 -87 175 -50 26 -187 7 -225 -31
-23 -24 -56 -16 -72 16 -7 14 -26 91 -43 169 -16 79 -38 157 -49 174 -26 43
-166 176 -220 210 -73 46 -149 65 -261 65 l-99 0 -26 43 c-34 55 -53 69 -151
118 -58 29 -108 65 -172 123 -59 55 -101 85 -122 90 -57 11 -242 5 -289 -9z
m178 -180 c33 -25 94 -78 136 -118 62 -60 77 -81 90 -126 44 -152 60 -296 37
-339 -12 -23 -66 -42 -119 -42 -43 0 -143 -34 -193 -65 -50 -32 -77 -74 -139
-215 -55 -126 -90 -169 -159 -198 -102 -44 -489 -108 -794 -132 -137 -11 -229
-6 -368 20 -95 18 -175 11 -361 -30 -99 -22 -207 -43 -240 -47 -72 -7 -111
-33 -106 -72 2 -17 13 -31 33 -40 35 -17 145 -6 364 34 160 30 205 31 251 7
56 -31 57 -39 10 -142 -46 -104 -59 -154 -41 -165 22 -13 58 4 71 35 28 68
211 204 316 236 74 22 203 42 419 64 277 28 429 55 494 86 32 16 88 61 141
113 75 73 94 99 128 172 44 96 100 161 153 177 19 5 64 17 101 27 37 9 87 30
112 45 63 41 85 88 96 213 11 120 25 169 49 165 35 -7 121 -221 121 -304 0
-136 -117 -282 -333 -416 -82 -50 -139 -116 -157 -181 -9 -30 -7 -60 11 -148
18 -92 20 -112 9 -119 -19 -12 -54 8 -123 69 -63 56 -117 76 -175 65 -20 -3
-84 -26 -142 -49 -163 -67 -257 -86 -611 -125 -230 -25 -281 -39 -419 -115
-63 -35 -150 -79 -192 -98 -121 -55 -159 -87 -239 -199 -121 -168 -121 -168
-143 -327 -8 -57 -17 -106 -20 -109 -4 -3 -16 4 -29 16 -29 27 -42 27 -95 2
-22 -11 -54 -20 -71 -20 -47 0 -79 -16 -83 -42 -6 -42 -35 -32 -95 32 -81 86
-141 122 -347 212 -99 43 -205 94 -236 114 -71 47 -186 165 -275 279 -38 50
-100 127 -137 172 -66 78 -90 123 -81 151 8 22 28 13 68 -30 44 -45 149 -117
223 -151 45 -21 64 -22 417 -27 l370 -5 99 -47 c98 -48 166 -103 166 -136 1
-30 38 -100 59 -111 48 -26 119 49 107 113 -10 51 -57 117 -117 163 -71 55
-220 129 -301 149 -65 17 -79 17 -478 -2 -218 -10 -302 17 -431 142 -102 100
-112 121 -99 216 5 40 14 146 20 235 6 90 15 174 20 187 18 49 162 120 267
132 76 9 104 24 188 102 85 79 182 144 210 140 59 -9 0 -83 -153 -192 -93 -66
-207 -181 -245 -247 -40 -68 -59 -153 -51 -231 l7 -68 -91 0 c-81 0 -93 -2
-102 -20 -17 -31 -1 -67 47 -110 97 -85 247 -104 437 -55 116 29 171 54 291
129 50 32 169 96 265 143 l175 86 280 -6 280 -5 155 165 154 166 236 -6 c129
-4 295 -14 369 -22 148 -18 162 -15 145 32 -14 40 -75 70 -178 88 -104 18
-558 40 -630 30 -62 -8 -79 -17 -138 -71 -54 -51 -66 -54 -73 -19 -3 14 -7 36
-10 50 -6 28 -40 41 -81 31 -52 -14 -72 -137 -34 -209 12 -22 18 -47 15 -58
-8 -24 -47 -34 -76 -19 -22 12 -22 15 -16 149 6 150 -1 184 -42 189 -29 5 -68
-30 -92 -83 -25 -54 -24 -79 8 -136 16 -30 23 -53 17 -59 -15 -14 -58 -21 -73
-11 -16 10 -30 77 -31 147 0 100 -34 143 -85 110 -49 -32 -72 -109 -54 -179
16 -66 8 -78 -29 -41 -17 18 -35 50 -41 75 -26 103 -57 133 -94 91 -48 -52
-61 -156 -27 -207 25 -38 25 -55 1 -55 -12 0 -34 24 -62 68 -69 105 -109 93
-109 -32 0 -29 -6 -61 -14 -71 -13 -18 -14 -18 -41 3 -38 30 -80 29 -101 -3
-21 -32 -12 -70 27 -104 16 -14 29 -30 29 -36 0 -18 -61 -71 -120 -103 -94
-53 -261 -103 -328 -100 -64 3 -77 23 -30 46 31 15 43 46 58 155 5 43 15 88
21 100 7 12 91 103 189 202 128 131 188 200 218 252 34 57 54 80 104 113 79
53 305 163 377 184 84 24 175 21 240 -9 127 -59 195 -53 377 35 145 70 194 87
290 102 136 21 336 -23 350 -77 6 -22 -6 -49 -70 -170 -18 -33 -26 -62 -24
-85 4 -51 34 -51 92 -1 65 56 118 92 243 162 124 70 209 129 290 199 31 28 64
50 74 50 9 0 44 -20 77 -45z m936 -468 c94 -93 122 -217 114 -503 -5 -183 -15
-224 -57 -224 -33 0 -71 -39 -71 -71 0 -50 75 -112 95 -79 3 6 13 10 21 10 11
0 14 -14 13 -62 l0 -63 -16 33 c-28 54 -49 42 -73 -40 -34 -116 -51 -159 -67
-165 -20 -8 -24 0 -32 59 l-6 53 -40 0 c-46 0 -44 7 -68 -183 -8 -62 -17 -116
-21 -120 -4 -3 -17 7 -30 23 -23 29 -25 29 -44 12 -12 -11 -30 -53 -42 -100
-12 -45 -27 -88 -32 -94 -6 -7 -26 -13 -44 -13 -51 0 -65 -30 -79 -169 -7 -65
-17 -127 -23 -137 -9 -17 -11 -16 -17 11 -18 83 -30 110 -51 113 -48 7 -79
-97 -124 -416 -55 -390 -70 -386 -70 21 0 303 -1 311 -42 256 -23 -31 -43
-127 -63 -309 -39 -364 -56 -367 -66 -13 -4 137 -8 249 -8 250 -8 15 -38 33
-56 33 -44 0 -57 -45 -80 -264 -8 -70 -17 -131 -20 -134 -17 -18 -43 68 -55
184 -10 92 -31 144 -60 144 -18 0 -29 -8 -62 -49 -14 -16 -29 -21 -68 -21 -61
0 -66 -8 -72 -113 -3 -42 -8 -81 -12 -85 -13 -12 -35 29 -46 87 -6 31 -16 67
-23 81 -30 59 -107 16 -107 -59 0 -44 -15 -63 -25 -31 -13 40 -56 80 -85 80
-33 0 -60 -31 -60 -67 0 -29 -10 -29 -55 1 -19 14 -58 29 -86 35 -74 16 -239
14 -289 -4 -38 -13 -46 -13 -76 1 -18 9 -38 22 -45 30 -18 21 -38 17 -76 -16
-41 -36 -50 -37 -93 -5 -36 27 -74 33 -86 13 -4 -6 -10 -25 -14 -42 l-6 -31
-17 26 c-21 32 -67 208 -67 258 0 53 36 173 74 250 50 98 126 164 278 241 68
35 149 78 180 98 l57 35 183 8 c264 12 385 36 673 134 88 30 165 55 171 55 6
0 39 -23 75 -50 106 -82 203 -107 303 -78 50 15 136 95 136 126 0 41 -38 130
-78 187 -23 31 -39 62 -36 69 7 17 64 58 199 141 252 154 259 166 309 498 14
91 31 168 40 182 27 40 60 33 120 -28z m462 -608 c8 -17 37 -95 64 -173 27
-77 80 -220 120 -316 250 -611 360 -972 360 -1180 0 -204 -226 -1028 -270
-984 -5 5 -13 64 -16 129 -7 130 -19 165 -57 165 -53 0 -87 -82 -102 -245 -13
-149 -64 -356 -96 -389 -5 -6 -9 29 -9 86 0 107 -9 141 -40 158 -17 9 -27 8
-47 -5 -32 -21 -50 -65 -75 -184 -45 -216 -123 -398 -159 -376 -17 11 -9 49
32 170 48 140 59 246 26 253 -33 7 -66 -8 -81 -36 -8 -15 -28 -76 -46 -137
-78 -269 -230 -573 -230 -462 0 28 23 95 79 230 23 55 44 116 47 138 6 34 4
40 -19 50 -38 17 -72 4 -124 -51 -46 -47 -51 -50 -110 -53 -34 -2 -69 -9 -77
-16 -9 -8 -41 -62 -73 -122 -68 -132 -74 -138 -113 -116 -48 29 -74 22 -123
-33 -25 -27 -52 -50 -59 -50 -36 0 -78 84 -78 154 0 25 14 87 30 138 34 104
113 411 161 623 22 100 34 183 40 290 16 288 43 502 77 602 90 266 158 353
552 702 153 136 206 276 245 646 29 271 78 425 136 425 11 0 26 -14 35 -31z
m-5172 -542 c151 -70 506 -330 666 -489 81 -80 124 -105 270 -158 135 -50 287
-124 371 -181 90 -61 242 -264 269 -359 11 -37 -2 -70 -26 -70 -8 0 -47 31
-87 68 -40 37 -88 77 -107 89 -53 32 -150 60 -306 87 -203 35 -257 51 -365
108 -105 55 -187 120 -224 178 -13 21 -34 71 -46 111 -30 102 -58 155 -128
240 -101 126 -172 171 -336 210 -107 25 -125 34 -125 58 0 17 85 141 97 141 2
0 37 -15 77 -33z m-22 -297 c83 -26 169 -87 224 -162 33 -45 52 -88 80 -176
20 -64 50 -144 67 -177 91 -172 319 -305 557 -326 206 -18 327 -59 415 -140
67 -62 71 -80 110 -510 19 -209 64 -341 169 -498 27 -39 36 -63 34 -85 -5 -53
-35 -40 -80 34 -76 126 -168 200 -249 200 -25 0 -63 7 -83 15 -39 16 -34 18
-118 -31 -43 -25 -63 -8 -186 153 -50 65 -123 153 -162 196 -75 80 -98 91
-136 62 -44 -33 -70 -12 -135 110 -51 96 -75 125 -106 125 -39 0 -56 -40 -51
-121 8 -105 -12 -88 -104 86 -89 169 -121 215 -148 215 -23 0 -37 -38 -46
-132 -10 -109 -17 -112 -52 -22 -41 107 -59 183 -67 279 -3 44 -8 97 -11 117
-6 40 -43 88 -69 88 -28 0 -65 -46 -65 -82 -1 -18 -7 -44 -15 -58 l-13 -25
-11 28 c-15 39 -13 110 4 187 28 123 43 226 54 375 16 201 26 250 58 275 32
25 54 25 135 0z m2652 -886 c106 -17 153 -37 240 -98 80 -58 149 -76 426 -116
197 -28 206 -30 230 -58 14 -16 61 -70 105 -120 104 -118 143 -185 172 -291
57 -214 28 -446 -74 -579 -31 -41 -53 -110 -53 -167 0 -59 -17 -100 -46 -114
-37 -17 -139 -14 -154 4 -21 26 -75 18 -113 -15 -36 -31 -61 -38 -72 -19 -4 5
-18 14 -32 20 -53 20 -77 -15 -142 -209 -22 -67 -50 -139 -60 -160 l-20 -37
-1 32 c0 17 14 92 31 165 34 148 42 246 20 271 -18 22 -64 22 -84 -1 -22 -24
-34 -60 -58 -171 -22 -102 -54 -197 -70 -206 -5 -4 -6 72 -2 193 3 109 3 210
-1 225 -8 32 -48 61 -74 53 -31 -10 -43 -53 -63 -224 -19 -171 -25 -202 -39
-202 -17 0 -20 22 -50 358 -5 62 -14 121 -20 132 -15 28 -85 28 -100 1 -5 -11
-10 -82 -11 -158 0 -191 -14 -302 -34 -282 -2 3 -20 75 -40 159 -45 197 -60
242 -91 271 -20 18 -28 21 -42 12 -15 -9 -17 -30 -13 -199 3 -201 -4 -223 -34
-105 -29 112 -123 281 -156 281 -37 0 -52 -43 -45 -128 5 -52 4 -74 -3 -67 -6
6 -38 73 -71 150 -34 77 -83 172 -110 210 -114 168 -228 460 -266 679 -17 97
-12 136 27 226 32 71 67 116 123 155 189 130 544 183 870 129z m-2864 -99 c0
-11 -5 -27 -10 -35 -7 -11 -10 -1 -10 35 0 36 3 46 10 35 5 -8 10 -24 10 -35z
m-128 -625 c74 -38 116 -64 300 -189 64 -43 216 -114 313 -145 95 -31 251 -62
355 -71 157 -13 255 -28 294 -45 23 -9 88 -46 146 -82 198 -122 531 -294 735
-379 56 -23 84 -42 110 -73 47 -57 94 -161 97 -216 l3 -45 -46 -3 c-32 -2 -74
6 -133 27 -113 39 -722 181 -947 221 -211 37 -248 48 -322 93 -77 47 -330 158
-487 214 -249 89 -405 178 -475 270 -53 69 -115 293 -115 414 l0 62 45 -5 c24
-3 81 -25 127 -48z m634 -62 c94 -70 136 -133 103 -153 -14 -9 -97 78 -127
133 -26 47 -19 53 24 20z m6074 -63 c115 -42 261 -119 318 -167 28 -24 111
-76 184 -117 160 -88 188 -108 167 -121 -7 -5 -34 -12 -59 -15 -175 -22 -347
-69 -480 -129 -52 -24 -127 -56 -167 -71 -127 -47 -286 -156 -467 -323 -157
-142 -385 -299 -400 -274 -7 12 52 58 107 82 80 35 128 115 133 221 4 71 30
143 70 196 13 17 24 34 24 37 0 3 -27 8 -60 12 -33 4 -63 10 -65 14 -3 5 15
34 41 67 67 86 125 175 121 187 -2 6 -18 14 -35 18 -60 16 -37 61 94 183 107
99 106 111 -5 101 l-76 -7 34 35 c99 102 345 135 521 71z m914 -561 c10 -4 16
-18 16 -38 0 -46 -34 -74 -185 -152 -71 -36 -150 -80 -175 -97 -93 -63 -283
-269 -457 -495 -63 -82 -170 -179 -234 -212 -61 -32 -280 -109 -368 -130 -102
-23 -317 -46 -355 -36 -18 4 -32 18 -41 39 -14 34 -46 67 -82 86 -30 15 -95
14 -118 -3 -21 -15 -23 -13 78 -70 96 -55 66 -67 -269 -106 -569 -67 -700 -61
-1094 50 -191 54 -319 86 -442 109 -102 19 -188 51 -188 71 0 45 533 37 960
-15 69 -9 202 -19 295 -23 l171 -8 63 -42 c63 -42 122 -55 136 -31 4 6 -5 27
-19 47 l-26 37 21 17 c11 10 53 27 92 38 295 83 514 179 683 300 106 76 151
100 191 100 39 0 74 26 118 87 83 115 222 222 342 264 79 28 168 74 238 124
80 57 138 75 275 84 147 10 354 13 374 5z m-7265 -177 c40 -20 36 -36 -12 -57
-98 -43 -187 -54 -449 -55 -135 0 -250 3 -254 8 -19 19 31 32 248 63 128 19
251 38 273 43 60 13 167 12 194 -2z m2121 -54 c0 -22 -30 -15 -39 10 -5 12 -6
26 -4 30 7 11 43 -23 43 -40z m-3067 -32 c13 -5 38 -32 55 -60 39 -63 67 -77
178 -91 171 -22 167 -20 189 -67 12 -24 26 -48 33 -55 9 -9 68 -11 218 -10
258 3 290 -1 310 -39 13 -26 20 -29 62 -29 26 0 89 11 140 25 148 40 285 65
352 65 55 0 61 -2 50 -15 -7 -8 -70 -33 -140 -56 -182 -57 -232 -96 -166 -128
39 -18 131 -5 282 43 137 43 247 66 314 66 95 0 56 -28 -143 -100 -122 -44
-182 -84 -175 -117 3 -15 14 -18 68 -17 77 1 197 35 395 110 159 62 249 84
266 67 13 -13 -50 -51 -276 -167 -82 -42 -161 -85 -173 -95 -22 -16 -23 -19
-7 -34 39 -40 126 -17 385 101 221 100 361 143 399 122 19 -10 -46 -44 -218
-110 -184 -72 -262 -128 -231 -165 21 -25 79 -13 255 52 184 68 320 113 340
113 8 0 15 -7 15 -15 0 -10 -71 -50 -207 -115 -277 -133 -295 -143 -389 -211
-44 -33 -88 -59 -96 -59 -18 0 -28 20 -28 54 0 52 -54 60 -152 22 -96 -38
-102 -38 -106 6 -4 51 -21 58 -114 48 -100 -11 -138 -29 -209 -95 -70 -64
-102 -76 -359 -129 -96 -20 -177 -41 -181 -47 -9 -15 1 -62 19 -81 19 -23 87
-23 231 -3 170 25 202 37 279 107 82 74 124 97 147 78 8 -7 15 -25 15 -40 0
-15 9 -35 20 -45 28 -25 100 -15 219 30 51 19 100 35 107 35 28 0 13 -31 -28
-59 -80 -55 -98 -72 -98 -92 0 -31 41 -44 96 -30 103 26 210 97 344 227 55 54
82 70 180 112 63 27 164 73 224 101 60 28 121 51 135 51 25 -1 26 -1 6 -16
-11 -9 -56 -34 -100 -56 -93 -47 -210 -124 -244 -161 -15 -16 -21 -32 -17 -43
10 -27 91 -10 220 46 123 54 136 57 136 36 0 -16 -54 -62 -135 -116 -110 -74
-329 -264 -388 -338 -21 -27 -24 -38 -16 -48 19 -23 82 -17 120 11 19 13 57
38 84 54 80 47 92 58 135 120 48 71 118 120 274 190 179 80 187 79 103 -15
-30 -32 -59 -69 -65 -81 -16 -29 -15 -63 1 -63 6 -1 72 30 144 67 93 47 136
64 143 57 18 -18 1 -41 -68 -87 -77 -51 -163 -126 -193 -168 -17 -24 -18 -33
-9 -44 7 -8 21 -15 31 -15 39 0 133 41 185 80 93 70 105 66 47 -14 -158 -221
-418 -415 -597 -447 -99 -17 -640 -6 -776 15 -137 22 -288 73 -414 140 -198
106 -354 157 -651 217 -241 48 -315 69 -420 118 -90 43 -217 130 -287 199 -53
51 -108 148 -132 232 -9 30 -27 116 -41 191 -13 74 -43 189 -65 255 -68 195
-83 258 -76 298 8 43 58 103 101 122 35 16 104 18 138 5z m5367 -36 c0 -9 -12
-28 -27 -43 -24 -24 -28 -25 -31 -9 -5 23 24 67 43 67 8 0 15 -7 15 -15z
m-4375 -74 c3 -6 -3 -15 -13 -20 -30 -16 -138 -30 -167 -22 -24 6 -25 8 -12
20 9 7 28 16 44 21 39 12 141 12 148 1z m2185 -829 c0 -15 -24 -32 -47 -32
-22 0 -31 19 -16 33 9 10 63 9 63 -1z m3236 -265 c52 -36 66 -57 37 -57 -21 0
-101 48 -122 73 -25 31 32 20 85 -16z m570 7 c58 -38 138 -119 200 -202 64
-83 94 -107 127 -98 28 7 43 36 52 100 4 25 13 46 19 46 30 0 109 -71 203
-183 l65 -78 -55 -122 c-105 -230 -142 -354 -157 -521 -16 -178 -86 -403 -161
-515 -51 -77 -253 -288 -347 -362 -86 -69 -150 -92 -316 -114 -192 -25 -538
-40 -615 -26 -36 6 -187 16 -336 21 -279 10 -326 16 -432 51 -89 29 -165 83
-271 192 -153 157 -240 204 -488 261 -197 45 -310 84 -480 166 -248 119 -414
248 -480 375 -92 174 -136 444 -103 630 15 90 22 97 60 57 l31 -33 30 28 c16
15 41 47 56 70 15 24 30 43 34 43 4 0 23 -14 43 -31 19 -17 41 -29 48 -26 8 3
22 27 32 54 35 93 55 96 86 13 24 -65 57 -100 96 -100 33 0 36 17 23 119 -6
50 -9 95 -5 101 11 18 42 -17 82 -92 54 -104 95 -100 124 12 7 27 16 50 20 50
4 0 19 -21 34 -47 35 -60 84 -113 105 -113 27 0 48 32 60 88 l12 51 49 -74
c56 -84 81 -105 122 -105 32 0 50 32 62 114 l7 48 54 -98 c56 -102 110 -164
143 -164 29 0 38 16 55 93 11 47 43 31 86 -43 96 -163 86 -152 127 -148 31 2
41 9 52 33 13 26 12 38 -3 98 -10 38 -15 71 -11 75 3 4 27 -16 52 -43 110
-121 104 -116 142 -113 33 3 37 7 51 50 8 26 19 50 23 54 4 5 39 -25 77 -65
62 -64 73 -72 102 -69 38 4 45 21 47 113 l1 60 43 -48 c55 -62 105 -97 137
-97 63 0 66 60 10 180 -63 134 -51 156 36 66 29 -29 73 -90 99 -135 26 -44 58
-90 72 -101 29 -22 78 -27 90 -7 4 6 10 50 13 96 l5 85 52 -72 c52 -71 99
-107 127 -96 21 8 39 68 31 107 -3 17 -16 53 -27 80 -16 35 -19 50 -10 59 8 8
36 -15 109 -89 102 -105 140 -126 182 -103 34 17 27 73 -19 170 -56 115 -48
130 25 45 160 -185 198 -211 240 -165 17 19 24 84 13 130 -8 34 35 17 97 -40
98 -88 148 -96 153 -23 5 65 -38 145 -120 224 -37 36 -68 68 -68 72 0 15 39 6
76 -19z m-901 -4 c4 -6 -5 -10 -20 -10 -15 0 -24 4 -20 10 3 6 12 10 20 10 8
0 17 -4 20 -10z m-5552 -320 c437 -76 523 -101 801 -232 211 -100 314 -137
478 -173 151 -34 205 -52 223 -78 25 -36 19 -47 -29 -47 -33 0 -52 7 -81 30
-21 17 -48 33 -61 36 -30 8 -62 -11 -66 -38 -5 -36 -54 -35 -139 3 -65 28 -78
30 -123 23 -63 -10 -176 -9 -237 1 -34 5 -61 3 -97 -9 -58 -20 -77 -16 -223
39 -49 19 -126 42 -172 51 -99 20 -169 54 -273 132 -96 73 -264 244 -264 270
0 20 8 32 23 32 5 0 113 -18 240 -40z m1850 -442 c43 -11 91 -31 107 -44 15
-13 34 -24 42 -24 20 0 28 -9 21 -26 -7 -18 -59 -18 -164 1 -154 29 -259 69
-259 100 0 29 126 26 253 -7z m1155 -672 c43 -117 89 -271 103 -341 10 -51 9
-66 -4 -98 -26 -62 -72 -68 -222 -30 -89 23 -167 13 -335 -42 -143 -47 -147
-48 -285 -50 -115 -2 -165 -8 -278 -33 -269 -60 -423 -63 -564 -11 -107 40
-192 58 -320 69 -322 27 -370 38 -347 77 29 50 125 74 424 107 80 9 186 25
235 36 110 23 334 68 551 109 89 17 222 49 295 70 74 22 203 58 288 81 145 39
293 91 317 111 18 14 88 37 101 32 6 -3 25 -42 41 -87z m915 -332 c15 -4 27
-12 27 -18 0 -7 -45 -61 -99 -120 -74 -79 -111 -130 -145 -194 -46 -91 -107
-238 -147 -356 l-23 -70 -13 30 c-17 41 -16 225 2 322 29 151 93 308 157 386
l32 39 90 -7 c50 -3 103 -9 119 -12z m337 -349 c20 -24 -2 -61 -45 -75 -70
-23 -87 9 -30 59 40 35 57 38 75 16z m-3152 -10 c34 -8 113 -36 174 -61 92
-38 129 -48 212 -56 119 -12 339 2 485 32 135 27 156 29 336 40 88 5 196 16
239 25 102 20 369 36 469 28 50 -4 81 -11 90 -21 14 -17 18 -526 4 -574 -12
-43 -32 -34 -81 40 -56 84 -175 219 -241 273 -27 23 -75 54 -105 68 -53 25
-62 26 -231 26 -194 0 -209 -4 -209 -58 0 -17 18 -95 40 -172 22 -78 60 -236
84 -351 30 -146 53 -229 75 -274 51 -108 262 -446 320 -513 126 -146 273 -249
502 -352 181 -82 214 -105 256 -180 48 -87 76 -182 122 -420 56 -293 65 -366
65 -562 1 -148 -1 -175 -16 -189 -15 -15 -18 -15 -46 4 -39 28 -134 146 -161
200 -12 24 -37 103 -55 175 -55 216 -90 287 -207 411 -78 84 -197 177 -322
252 -128 77 -131 89 -27 125 85 30 119 63 101 97 -12 23 -35 28 -206 42 -209
18 -236 35 -294 190 -56 151 -155 305 -308 481 -106 123 -178 190 -394 371
-96 80 -226 191 -289 248 -63 56 -182 162 -265 235 -82 72 -198 182 -257 243
-115 119 -128 147 -86 176 29 21 141 21 226 1z m3552 -79 c165 -32 330 -46
645 -53 177 -4 289 -2 350 6 50 7 109 15 132 18 43 6 103 -11 103 -28 0 -5
-20 -9 -44 -9 -76 0 -235 -47 -352 -104 -86 -43 -125 -69 -175 -118 -50 -48
-97 -80 -203 -137 -285 -152 -399 -253 -567 -503 -121 -179 -170 -315 -191
-528 -14 -145 -2 -210 75 -406 30 -76 82 -211 117 -299 44 -112 64 -178 68
-221 5 -68 1 -79 -63 -163 -54 -72 -158 -244 -201 -335 -36 -75 -43 -130 -20
-161 13 -17 17 -18 55 -5 37 12 44 12 58 -3 15 -15 15 -19 -1 -60 -21 -55 -79
-120 -103 -115 -13 2 -20 15 -23 43 -11 78 -31 83 -95 24 -26 -24 -51 -39 -62
-37 -24 4 -39 55 -51 163 -12 107 -4 139 52 208 181 223 181 223 248 396 27
69 55 138 61 153 9 23 8 31 -6 45 -16 16 -20 16 -64 -6 -27 -12 -95 -53 -153
-91 -142 -92 -159 -99 -175 -77 -7 10 -21 61 -30 115 -17 98 -86 344 -171 612
-54 173 -64 254 -39 329 27 83 259 417 408 589 107 123 154 246 201 522 42
246 46 260 70 260 12 0 77 -11 146 -24z m1275 -186 c22 -18 18 -46 -7 -64 -31
-22 -96 -20 -141 4 -20 11 -45 20 -56 20 -30 0 -276 -192 -345 -269 -24 -27
-63 -28 -71 -1 -27 84 266 284 468 320 64 11 132 7 152 -10z m-3289 -64 c132
-67 257 -192 324 -326 35 -71 72 -184 109 -338 16 -67 41 -141 55 -165 47 -78
67 -127 73 -179 l6 -52 -30 22 c-73 52 -185 196 -265 342 -37 67 -104 221
-152 346 -35 94 -78 159 -116 179 -75 39 -77 -18 -9 -205 23 -63 43 -133 43
-155 1 -34 -2 -40 -22 -43 -13 -2 -30 2 -37 8 -22 18 -64 162 -81 273 -8 54
-26 133 -39 175 -28 86 -31 122 -13 140 22 22 83 13 154 -22z m3704 -116 c10
-18 7 -22 -22 -34 -46 -19 -173 -32 -182 -18 -12 19 107 70 166 71 18 1 31 -6
38 -19z m-5298 -87 c163 -174 251 -255 403 -373 201 -155 335 -271 426 -368
120 -128 318 -382 352 -451 30 -61 32 -73 32 -166 -1 -55 -8 -170 -18 -255 -9
-85 -21 -225 -27 -310 -11 -174 -18 -206 -57 -263 -92 -133 -476 -388 -697
-463 -123 -42 -210 -48 -718 -49 -496 0 -520 2 -488 40 28 34 187 69 481 105
425 51 763 140 909 238 98 66 132 182 55 190 -17 2 -63 -4 -104 -14 -106 -25
-277 -15 -432 24 -253 65 -469 173 -639 322 -181 157 -320 214 -570 229 -146
9 -244 34 -295 75 -46 37 -26 45 88 39 88 -4 122 -1 256 26 85 18 245 43 355
57 111 14 254 34 320 44 185 30 261 15 721 -147 301 -107 376 -109 392 -10 10
62 -40 146 -162 277 -186 198 -246 313 -270 507 -20 174 -45 233 -150 358 -76
93 -159 214 -215 317 -68 124 -51 131 52 21z m5651 3 c20 -8 37 -19 37 -24 0
-12 -25 -33 -88 -76 -48 -32 -214 -180 -332 -297 -26 -25 -80 -90 -122 -145
-41 -54 -137 -173 -213 -263 -76 -91 -167 -210 -203 -265 -107 -166 -112 -174
-163 -221 -52 -48 -99 -61 -99 -27 0 66 123 323 190 397 27 30 88 107 136 172
49 65 105 141 125 168 21 28 96 111 167 186 138 147 172 188 172 213 0 22 -14
20 -74 -10 -111 -56 -236 -170 -392 -360 -90 -110 -184 -241 -184 -258 0 -6
-34 -54 -75 -106 -116 -148 -251 -402 -285 -536 -10 -42 -76 -118 -112 -130
-37 -11 -51 15 -45 83 9 89 45 168 192 413 71 118 161 283 201 365 42 89 96
183 132 230 33 44 63 91 67 105 44 148 151 221 418 286 186 45 233 61 287 96
44 29 48 30 136 25 49 -3 107 -12 127 -21z m-3343 -142 c58 -288 176 -724 246
-911 91 -245 234 -726 258 -868 50 -291 80 -791 74 -1210 -5 -281 -8 -330 -36
-525 -37 -247 -55 -327 -82 -354 -19 -20 -20 -20 -45 4 -31 29 -33 75 -6 198
57 254 75 549 68 1081 -9 653 -36 832 -203 1329 -46 140 -109 338 -140 440
-30 103 -82 268 -114 367 -63 193 -90 338 -90 486 0 82 13 130 32 111 5 -5 22
-72 38 -148z m2250 59 c0 -25 -7 -61 -17 -81 -26 -59 -287 -305 -408 -385 -73
-49 -93 -30 -56 55 26 61 63 102 124 136 62 35 108 79 204 193 79 95 130 142
144 133 5 -3 9 -26 9 -51z m1609 2 c89 -21 183 -68 220 -110 60 -68 46 -83
-179 -195 -253 -126 -355 -197 -652 -452 -201 -173 -282 -229 -342 -235 -35
-4 -46 -2 -46 8 0 18 83 99 290 281 211 186 523 480 578 545 35 42 40 53 28
62 -28 24 -129 -20 -241 -104 -157 -117 -488 -430 -777 -733 -112 -118 -161
-163 -174 -160 -10 2 -20 10 -22 18 -7 38 170 286 380 530 300 350 457 483
638 541 70 23 212 24 299 4z m-2089 -76 c0 -35 -70 -158 -86 -152 -17 6 -19
60 -3 100 23 61 89 100 89 52z m-250 -188 c0 -39 -56 -223 -86 -282 -41 -83
-54 -64 -54 82 0 125 13 159 76 199 27 16 52 30 56 30 4 0 8 -13 8 -29z m158
-28 c4 -26 -23 -93 -37 -93 -14 0 -14 60 -1 95 11 30 33 29 38 -2z m546 -85
c-9 -18 -34 -56 -56 -85 -63 -82 -252 -413 -349 -608 -105 -214 -145 -327
-163 -469 -15 -115 -30 -147 -93 -207 -50 -48 -69 -53 -88 -26 -33 48 -9 123
42 129 42 5 53 38 53 163 0 273 66 527 179 694 101 148 475 494 489 452 2 -5
-4 -25 -14 -43z m1931 2 c22 -25 13 -64 -20 -86 -37 -24 -32 -49 15 -68 22 -9
53 -16 68 -16 15 0 33 -4 41 -9 12 -8 12 -13 -2 -35 -26 -39 -112 -103 -192
-143 -38 -19 -113 -66 -165 -104 -108 -77 -134 -89 -191 -89 -49 0 -79 15 -79
38 0 19 231 198 304 237 43 22 83 82 66 99 -14 14 -85 -17 -187 -80 -48 -30
-117 -70 -153 -88 -44 -23 -82 -53 -118 -95 -65 -75 -101 -95 -155 -88 -75 10
-67 33 53 161 36 38 97 95 135 126 231 189 518 308 580 240z m-4777 -36 c17
-20 42 -59 57 -88 65 -121 146 -227 277 -363 133 -137 178 -193 178 -221 0
-21 -38 -5 -125 53 -174 117 -241 198 -362 440 -86 174 -100 270 -25 179z
m1902 -235 c0 -57 -35 -263 -48 -284 -11 -16 -20 80 -21 222 -1 111 2 134 16
148 16 16 18 16 35 -5 13 -16 18 -39 18 -81z m276 -55 c12 -47 -29 -192 -59
-211 -13 -8 -1 115 19 185 16 57 30 66 40 26z m-108 -430 c4 -38 -35 -144 -53
-144 -19 0 -25 23 -25 94 0 69 12 88 50 84 20 -2 26 -9 28 -34z m-2083 -543
c250 -124 495 -425 560 -687 29 -117 57 -166 137 -239 64 -57 128 -131 128
-146 0 -15 -42 -10 -84 11 -64 31 -114 78 -141 131 -36 71 -60 84 -128 68 -47
-10 -65 -9 -128 7 -89 23 -204 23 -282 0 -43 -12 -63 -25 -87 -56 -17 -21 -39
-42 -50 -45 -21 -7 -80 19 -80 35 0 16 -47 42 -133 72 -88 31 -111 46 -102 70
12 31 59 42 194 48 153 6 164 12 137 70 -8 19 -33 64 -56 99 -22 35 -49 89
-61 120 -26 72 -82 397 -73 434 15 68 121 72 249 8z m-2765 -30 c5 -11 10 -49
10 -84 0 -104 -39 -109 -74 -9 -16 44 -13 65 12 95 20 22 39 22 52 -2z m407
-126 c61 -37 133 -107 133 -132 0 -28 15 -38 80 -52 30 -6 93 -28 140 -47 140
-59 240 -91 334 -109 96 -17 166 -47 166 -69 0 -19 -43 -33 -178 -56 -137 -24
-279 -26 -349 -5 -73 22 -159 83 -283 201 -119 114 -169 183 -177 242 -10 76
35 85 134 27z m5737 -130 c223 -30 382 -75 561 -159 119 -57 195 -116 307
-239 176 -193 190 -215 207 -327 13 -82 56 -239 126 -460 25 -80 51 -173 57
-207 10 -56 10 -65 -7 -83 -27 -30 -131 -58 -263 -71 -138 -14 -703 -6 -802
10 -216 37 -432 118 -603 228 -90 58 -127 73 -199 83 -73 11 -106 33 -296 209
-234 215 -290 254 -437 298 -47 14 -60 22 -60 38 0 26 81 70 169 92 61 15 69
15 111 -2 63 -24 100 -58 152 -138 50 -78 109 -141 199 -209 65 -50 110 -75
120 -66 10 11 -48 112 -179 305 -149 223 -151 229 -51 227 62 -1 175 -27 306
-70 97 -32 197 -112 240 -194 16 -30 67 -111 113 -180 46 -69 115 -182 154
-253 77 -140 116 -199 144 -216 70 -44 35 119 -73 344 -63 131 -131 234 -219
330 -39 43 -71 84 -71 92 0 36 139 0 282 -74 134 -69 199 -149 262 -323 8 -25
34 -68 57 -95 23 -28 70 -93 104 -145 69 -106 97 -135 120 -127 24 10 19 93
-9 153 -13 28 -47 77 -76 108 -80 90 -57 104 91 57 105 -34 145 -59 188 -118
48 -67 126 -120 204 -138 23 -6 27 -4 27 15 0 47 -71 142 -160 214 -138 110
-325 231 -386 248 -49 13 -43 40 11 50 49 8 239 -7 335 -27 39 -8 87 -15 106
-15 28 0 34 4 34 21 0 32 -60 83 -121 102 -76 25 -201 44 -364 57 -77 6 -167
18 -200 26 -107 26 -349 154 -329 174 5 5 61 14 124 20 282 27 382 56 388 113
3 25 1 27 -35 27 -71 0 -573 -60 -651 -77 -42 -10 -108 -18 -147 -18 -80 1
-303 39 -319 55 -33 33 111 92 318 131 116 21 166 44 166 75 0 42 -131 42
-310 -1 -154 -37 -220 -60 -370 -130 -179 -83 -326 -138 -375 -139 -35 -1 -40
2 -43 23 -7 46 112 138 303 233 187 94 335 141 500 158 112 12 427 4 569 -15z
m-3688 -128 c5 -32 1 -55 -11 -81 -18 -37 -96 -106 -120 -106 -7 0 -32 -16
-55 -35 -23 -19 -44 -35 -46 -35 -15 0 5 29 70 99 73 79 92 114 117 211 l11
45 14 -27 c8 -15 17 -47 20 -71z m2260 -16 c-26 -49 -55 -57 -37 -9 12 31 44
64 49 50 2 -6 -4 -24 -12 -41z m-1168 -1155 c45 -23 110 -83 128 -118 25 -49
-15 -89 -56 -55 -8 7 -30 31 -49 55 -18 23 -62 63 -98 89 -38 27 -60 49 -53
53 16 10 90 -4 128 -24z"/>
<path d="M7040 7478 c-62 -33 -2 -85 130 -113 59 -12 80 -13 103 -4 63 26 48
69 -37 104 -54 23 -164 30 -196 13z"/>
<path d="M1585 7270 c-27 -4 -69 -13 -91 -19 -23 -6 -91 -18 -150 -26 -138
-20 -177 -30 -198 -54 -24 -27 -17 -51 23 -78 44 -29 57 -29 264 7 223 40 253
48 288 77 72 61 -4 114 -136 93z"/>
<path d="M2804 7055 c-28 -14 -91 -61 -139 -105 -48 -45 -96 -80 -107 -80 -24
0 -98 -71 -98 -93 0 -23 39 -27 114 -12 92 19 137 43 226 118 86 72 140 149
123 175 -16 26 -63 25 -119 -3z"/>
<path d="M3164 6797 c-63 -55 -146 -113 -204 -142 -110 -55 -107 -124 5 -112
99 10 242 100 305 192 35 50 37 75 12 98 -30 27 -54 20 -118 -36z"/>
<path d="M7180 5708 c-26 -43 -27 -148 -2 -198 15 -32 22 -35 64 -38 61 -4 78
18 78 105 0 105 -36 163 -101 163 -11 0 -28 -14 -39 -32z"/>
<path d="M6907 5602 c-8 -9 -21 -31 -27 -47 -15 -38 -15 -196 0 -224 23 -43
104 -11 134 54 14 28 16 49 11 88 -16 119 -72 180 -118 129z"/>
<path d="M6537 5559 c-25 -15 -47 -63 -47 -104 0 -40 27 -170 42 -197 6 -13
21 -18 47 -18 62 0 79 22 87 111 9 102 -1 165 -31 195 -25 25 -67 31 -98 13z"/>
<path d="M5676 5535 c-24 -25 -38 -94 -34 -168 3 -61 7 -72 32 -94 69 -59 120
2 121 145 0 79 -1 85 -28 108 -32 28 -69 31 -91 9z"/>
<path d="M6189 5493 c-22 -25 -19 -169 5 -220 28 -62 94 -83 132 -42 23 25 32
140 14 193 -23 70 -115 113 -151 69z"/>
<path d="M5908 5473 c-24 -6 -32 -43 -24 -111 8 -72 39 -142 63 -143 73 -5 93
20 93 113 0 88 -17 124 -68 137 -20 6 -39 10 -42 10 -3 -1 -13 -3 -22 -6z"/>
</g>
</svg>
