<?xml version="1.0" encoding="utf-8"?>
<!-- Generator: Adobe Illustrator 27.5.0, SVG Export Plug-In . SVG Version: 6.00 Build 0)  -->
<svg version="1.1" xmlns="http://www.w3.org/2000/svg" xmlns:xlink="http://www.w3.org/1999/xlink" x="0px" y="0px"
	 viewBox="0 0 500 500" style="enable-background:new 0 0 500 500;" xml:space="preserve">
<g id="BACKGROUND">
	<rect style="fill:#2D1361;" width="500" height="500"/>
</g>
<g id="OBJECTS">
	<g>
		<linearGradient id="SVGID_1_" gradientUnits="userSpaceOnUse" x1="125.8591" y1="135.2659" x2="108.0012" y2="71.6469">
			<stop  offset="0" style="stop-color:#84FF5B"/>
			<stop  offset="0.4469" style="stop-color:#06D46F"/>
			<stop  offset="0.5114" style="stop-color:#06CC75"/>
			<stop  offset="0.6123" style="stop-color:#06B686"/>
			<stop  offset="0.7371" style="stop-color:#0691A1"/>
			<stop  offset="0.8794" style="stop-color:#065FC6"/>
			<stop  offset="1" style="stop-color:#062FEA"/>
		</linearGradient>
		<path style="fill:url(#SVGID_1_);" d="M145.206,87.256c0-5.546-4.512-10.059-10.059-10.059s-10.059,4.512-10.059,10.059
			c0,4.436,2.89,8.203,6.883,9.537v3.699c0,9.779-7.21,17.883-16.588,19.334V80.197c0-1.657-1.343-3-3-3c-1.657,0-3,1.343-3,3
			v39.628c-9.378-1.451-16.588-9.555-16.588-19.334v-3.699c3.993-1.334,6.882-5.101,6.882-9.537c0-5.546-4.512-10.059-10.059-10.059
			s-10.059,4.512-10.059,10.059c0,4.566,3.06,8.424,7.235,9.648v3.587c0,13.094,9.888,23.916,22.588,25.407v10.035
			c0,1.657,1.343,3,3,3c1.657,0,3-1.343,3-3v-10.035c12.7-1.491,22.588-12.313,22.588-25.407v-3.587
			C142.146,95.679,145.206,91.821,145.206,87.256z M85.559,87.256c0-2.238,1.821-4.059,4.059-4.059c2.238,0,4.059,1.821,4.059,4.059
			c0,2.238-1.821,4.059-4.059,4.059C87.38,91.314,85.559,89.493,85.559,87.256z M135.147,91.314c-2.238,0-4.059-1.821-4.059-4.059
			c0-2.238,1.821-4.059,4.059-4.059c2.238,0,4.059,1.821,4.059,4.059C139.206,89.493,137.385,91.314,135.147,91.314z"/>
		
			<linearGradient id="SVGID_00000135653545309961078110000011185970954071555224_" gradientUnits="userSpaceOnUse" x1="94.0883" y1="145.0791" x2="130.6767" y2="145.0791">
			<stop  offset="0" style="stop-color:#84FF5B"/>
			<stop  offset="0.4469" style="stop-color:#06D46F"/>
			<stop  offset="0.5114" style="stop-color:#06CC75"/>
			<stop  offset="0.6123" style="stop-color:#06B686"/>
			<stop  offset="0.7371" style="stop-color:#0691A1"/>
			<stop  offset="0.8794" style="stop-color:#065FC6"/>
			<stop  offset="1" style="stop-color:#062FEA"/>
		</linearGradient>
		<path style="fill:url(#SVGID_00000135653545309961078110000011185970954071555224_);" d="M127.677,155.726c-1.657,0-3-1.343-3-3
			c0-6.779-5.515-12.294-12.295-12.294c-6.779,0-12.294,5.515-12.294,12.294c0,1.657-1.343,3-3,3c-1.657,0-3-1.343-3-3
			c0-10.087,8.207-18.294,18.294-18.294s18.295,8.207,18.295,18.294C130.677,154.383,129.333,155.726,127.677,155.726z"/>
	</g>
	<g>
		
			<linearGradient id="SVGID_00000077322357121669821070000010178593449805750709_" gradientUnits="userSpaceOnUse" x1="227.1756" y1="116.4617" x2="281.3963" y2="116.4617">
			<stop  offset="0" style="stop-color:#FFE200"/>
			<stop  offset="0.4469" style="stop-color:#FF9200"/>
			<stop  offset="0.5192" style="stop-color:#FF880A"/>
			<stop  offset="0.6441" style="stop-color:#FF6C26"/>
			<stop  offset="0.8065" style="stop-color:#FF3F54"/>
			<stop  offset="0.9985" style="stop-color:#FF0192"/>
			<stop  offset="1" style="stop-color:#FF0093"/>
		</linearGradient>
		<path style="fill:url(#SVGID_00000077322357121669821070000010178593449805750709_);" d="M271.469,134.013
			c-4.529,0-8.351,3.053-9.538,7.206h-26.334c-0.581,0-0.828-0.387-0.924-0.617c-0.096-0.231-0.194-0.679,0.216-1.09l41.579-41.578
			c2.009-2.009,2.605-5.003,1.518-7.628c-1.088-2.625-3.626-4.321-6.468-4.321h-24.956c-1.275-4.011-5.033-6.926-9.46-6.926
			c-5.473,0-9.926,4.453-9.926,9.926c0,5.473,4.453,9.926,9.926,9.926c4.428,0,8.185-2.915,9.46-6.926h24.956
			c0.582,0,0.829,0.387,0.924,0.617c0.095,0.231,0.194,0.679-0.217,1.09l-41.579,41.578c-2.009,2.009-2.604,5.004-1.517,7.629
			c1.087,2.624,3.626,4.321,6.467,4.321h26.515c1.359,3.864,5.035,6.646,9.358,6.646c5.474,0,9.927-4.453,9.927-9.926
			C281.396,138.466,276.943,134.013,271.469,134.013z M237.102,92.91c-2.165,0-3.926-1.761-3.926-3.926
			c0-2.165,1.761-3.926,3.926-3.926c2.165,0,3.926,1.761,3.926,3.926C241.028,91.149,239.267,92.91,237.102,92.91z M271.469,147.866
			c-2.165,0-3.926-1.761-3.926-3.926c0-2.165,1.761-3.926,3.926-3.926c2.165,0,3.927,1.761,3.927,3.926
			C275.396,146.105,273.635,147.866,271.469,147.866z"/>
		
			<linearGradient id="SVGID_00000167361423387259314570000011982306796861615757_" gradientUnits="userSpaceOnUse" x1="257.1384" y1="119.5096" x2="281.3963" y2="119.5096">
			<stop  offset="0" style="stop-color:#84FF5B"/>
			<stop  offset="0.4469" style="stop-color:#06D46F"/>
			<stop  offset="0.5114" style="stop-color:#06CC75"/>
			<stop  offset="0.6123" style="stop-color:#06B686"/>
			<stop  offset="0.7371" style="stop-color:#0691A1"/>
			<stop  offset="0.8794" style="stop-color:#065FC6"/>
			<stop  offset="1" style="stop-color:#062FEA"/>
		</linearGradient>
		<path style="fill:url(#SVGID_00000167361423387259314570000011982306796861615757_);" d="M260.138,131.638
			c-0.768,0-1.536-0.293-2.122-0.879c-1.171-1.171-1.171-3.071,0.001-4.243l18.258-18.257c1.172-1.171,3.07-1.171,4.242,0.001
			c1.172,1.171,1.172,3.071,0,4.243L262.26,130.76C261.674,131.345,260.906,131.638,260.138,131.638z"/>
		
			<linearGradient id="SVGID_00000098936773226581403080000005760685921177897893_" gradientUnits="userSpaceOnUse" x1="220.8812" y1="119.5095" x2="245.1385" y2="119.5095">
			<stop  offset="0" style="stop-color:#84FF5B"/>
			<stop  offset="0.4469" style="stop-color:#06D46F"/>
			<stop  offset="0.5114" style="stop-color:#06CC75"/>
			<stop  offset="0.6123" style="stop-color:#06B686"/>
			<stop  offset="0.7371" style="stop-color:#0691A1"/>
			<stop  offset="0.8794" style="stop-color:#065FC6"/>
			<stop  offset="1" style="stop-color:#062FEA"/>
		</linearGradient>
		<path style="fill:url(#SVGID_00000098936773226581403080000005760685921177897893_);" d="M223.881,131.638
			c-0.768,0-1.536-0.293-2.121-0.879c-1.172-1.171-1.172-3.071,0-4.242l18.257-18.257c1.171-1.172,3.071-1.172,4.242,0
			c1.172,1.171,1.172,3.071,0,4.242l-18.257,18.257C225.417,131.345,224.649,131.638,223.881,131.638z"/>
	</g>
	
		<linearGradient id="SVGID_00000134930598305811315440000011409364862484404138_" gradientUnits="userSpaceOnUse" x1="356.6836" y1="116.4617" x2="426.8379" y2="116.4617">
		<stop  offset="0" style="stop-color:#1F27FF"/>
		<stop  offset="1" style="stop-color:#BA03F1"/>
	</linearGradient>
	<path style="fill:url(#SVGID_00000134930598305811315440000011409364862484404138_);" d="M420.101,92.32l-21.604-12.473
		c-4.153-2.399-9.316-2.399-13.474,0L363.42,92.32c-2.157,1.246-3.885,3.052-5.052,5.17c-0.008,0.013-0.018,0.023-0.026,0.036
		c-0.014,0.025-0.021,0.052-0.035,0.077c-1.043,1.935-1.624,4.122-1.624,6.385v24.946c0,4.798,2.581,9.27,6.736,11.669
		l21.603,12.473c2.078,1.2,4.407,1.799,6.737,1.799c2.329,0,4.659-0.6,6.736-1.799l21.604-12.473
		c4.155-2.398,6.737-6.87,6.737-11.669v-24.946C426.838,99.19,424.256,94.719,420.101,92.32z M420.838,128.934
		c0,2.662-1.432,5.142-3.737,6.472l-21.604,12.473c-2.305,1.331-5.169,1.331-7.474,0l-21.603-12.473
		c-2.305-1.331-3.736-3.81-3.736-6.472v-24.946c0-0.161,0.022-0.318,0.032-0.478l21.842,12.592
		c-0.243,0.941-0.385,1.921-0.385,2.936c0,6.502,5.29,11.791,11.792,11.791c6.502,0,11.791-5.289,11.791-11.791
		c0-6.501-5.289-11.791-11.791-11.791c-3.328,0-6.333,1.392-8.479,3.617l-22.01-12.689c0.298-0.24,0.609-0.465,0.945-0.66
		l21.603-12.473c1.152-0.665,2.444-0.998,3.737-0.998c1.292,0,2.584,0.333,3.736,0.998l21.604,12.473
		c2.306,1.33,3.737,3.811,3.737,6.472V128.934z M390.172,119.039c0-3.193,2.599-5.791,5.792-5.791c3.193,0,5.791,2.598,5.791,5.791
		c0,3.193-2.598,5.792-5.791,5.792C392.77,124.831,390.172,122.233,390.172,119.039z"/>
	<g>
		
			<linearGradient id="SVGID_00000079451110165046264740000007295214218231930753_" gradientUnits="userSpaceOnUse" x1="112.3823" y1="208.8542" x2="112.3823" y2="308.1531">
			<stop  offset="0" style="stop-color:#1FFFFF"/>
			<stop  offset="0.4609" style="stop-color:#2352F9"/>
			<stop  offset="1" style="stop-color:#BA03F1"/>
		</linearGradient>
		<path style="fill:url(#SVGID_00000079451110165046264740000007295214218231930753_);" d="M82.088,237.75v13.693
			c0,1.657,1.343,3,3,3h54.588c1.657,0,3-1.343,3-3V237.75c4.086-1.279,7.059-5.099,7.059-9.601c0-5.546-4.513-10.059-10.059-10.059
			s-10.059,4.513-10.059,10.059c0,4.502,2.973,8.322,7.059,9.601v10.693H88.088V237.75c4.086-1.279,7.059-5.099,7.059-9.601
			c0-5.546-4.512-10.059-10.059-10.059s-10.059,4.513-10.059,10.059C75.029,232.65,78.003,236.471,82.088,237.75z M139.676,224.089
			c2.238,0,4.059,1.821,4.059,4.059c0,2.238-1.821,4.059-4.059,4.059c-2.238,0-4.059-1.821-4.059-4.059
			C135.618,225.91,137.438,224.089,139.676,224.089z M85.088,224.089c2.238,0,4.059,1.821,4.059,4.059
			c0,2.238-1.821,4.059-4.059,4.059c-2.238,0-4.059-1.821-4.059-4.059C81.029,225.91,82.85,224.089,85.088,224.089z"/>
		
			<linearGradient id="SVGID_00000000211024044468895980000003647818894490753446_" gradientUnits="userSpaceOnUse" x1="112.3823" y1="208.8545" x2="112.3823" y2="308.153">
			<stop  offset="0" style="stop-color:#1FFFFF"/>
			<stop  offset="0.4609" style="stop-color:#2352F9"/>
			<stop  offset="1" style="stop-color:#BA03F1"/>
		</linearGradient>
		<path style="fill:url(#SVGID_00000000211024044468895980000003647818894490753446_);" d="M142.676,287.556v-13.693
			c0-1.657-1.343-3-3-3H85.088c-1.657,0-3,1.343-3,3v13.693c-4.086,1.279-7.059,5.1-7.059,9.602c0,5.546,4.513,10.059,10.059,10.059
			s10.059-4.513,10.059-10.059c0-4.502-2.973-8.323-7.059-9.602v-10.693h48.588v10.693c-4.086,1.28-7.059,5.1-7.059,9.602
			c0,5.546,4.512,10.059,10.059,10.059s10.059-4.513,10.059-10.059C149.735,292.656,146.762,288.835,142.676,287.556z
			 M85.088,301.216c-2.238,0-4.059-1.82-4.059-4.059s1.821-4.06,4.059-4.06c2.238,0,4.059,1.821,4.059,4.06
			S87.326,301.216,85.088,301.216z M139.676,301.216c-2.238,0-4.059-1.82-4.059-4.059s1.821-4.06,4.059-4.06
			c2.238,0,4.059,1.821,4.059,4.06S141.915,301.216,139.676,301.216z"/>
	</g>
	
		<linearGradient id="SVGID_00000100372053792281902830000002978949987013279676_" gradientUnits="userSpaceOnUse" x1="228.9155" y1="207.5002" x2="269.8568" y2="302.7945">
		<stop  offset="0" style="stop-color:#84FF5B"/>
		<stop  offset="0.4469" style="stop-color:#06D46F"/>
		<stop  offset="0.5114" style="stop-color:#06CC75"/>
		<stop  offset="0.6123" style="stop-color:#06B686"/>
		<stop  offset="0.7371" style="stop-color:#0691A1"/>
		<stop  offset="0.8794" style="stop-color:#065FC6"/>
		<stop  offset="1" style="stop-color:#062FEA"/>
	</linearGradient>
	<path style="fill:url(#SVGID_00000100372053792281902830000002978949987013279676_);" d="M275.357,233.821
		c-5.546,0-10.059,4.513-10.059,10.059c0,1.918,0.549,3.706,1.485,5.233l-9.298,9.298l-10.004-10.004
		c-1.171-1.172-3.071-1.172-4.242,0l-10.004,10.004l-9.13-9.13l21.255-21.255l9.879,9.879c1.172,1.171,3.07,1.171,4.242-0.001
		c1.172-1.171,1.172-3.071,0-4.243l-12.001-12c-1.171-1.171-3.071-1.171-4.242,0.001l-25.497,25.497
		c-0.563,0.563-0.879,1.326-0.879,2.121c0,0.796,0.316,1.559,0.879,2.122l11.251,11.251l-11.251,11.251
		c-0.563,0.563-0.879,1.325-0.879,2.121s0.316,1.559,0.879,2.121l25.497,25.497c0.586,0.586,1.354,0.879,2.121,0.879
		c0.768,0,1.536-0.293,2.121-0.879l25.498-25.497c1.172-1.171,1.172-3.071,0-4.242c-1.172-1.172-3.07-1.172-4.242,0l-23.377,23.376
		l-21.255-21.255l9.13-9.13l10.004,10.004c0.586,0.586,1.354,0.879,2.121,0.879c0.768,0,1.536-0.293,2.121-0.879l23.822-23.821
		c1.242,0.549,2.611,0.861,4.054,0.861c5.546,0,10.059-4.512,10.059-10.059C285.416,238.333,280.903,233.821,275.357,233.821z
		 M245.359,270.536l-7.883-7.883l7.883-7.883l7.883,7.883L245.359,270.536z M275.357,247.938c-2.238,0-4.059-1.821-4.059-4.059
		c0-2.238,1.82-4.059,4.059-4.059c2.238,0,4.059,1.821,4.059,4.059C279.416,246.118,277.595,247.938,275.357,247.938z"/>
	<g>
		
			<linearGradient id="SVGID_00000003101440750981291170000009517085761552519577_" gradientUnits="userSpaceOnUse" x1="382.2321" y1="212.6481" x2="416.1404" y2="291.5725">
			<stop  offset="0" style="stop-color:#FFE200"/>
			<stop  offset="0.4469" style="stop-color:#FF9200"/>
			<stop  offset="0.5192" style="stop-color:#FF880A"/>
			<stop  offset="0.6441" style="stop-color:#FF6C26"/>
			<stop  offset="0.8065" style="stop-color:#FF3F54"/>
			<stop  offset="0.9985" style="stop-color:#FF0192"/>
			<stop  offset="1" style="stop-color:#FF0093"/>
		</linearGradient>
		<path style="fill:url(#SVGID_00000003101440750981291170000009517085761552519577_);" d="M423.878,222.619h-64.235
			c-1.657,0-3,1.343-3,3c0,1.657,1.343,3,3,3h61.235v24.95h-33c-1.657,0-3,1.343-3,3v26.577c-3.916,1.377-6.735,5.102-6.735,9.483
			c0,5.546,4.513,10.059,10.059,10.059s10.059-4.513,10.059-10.059c0-4.618-3.133-8.509-7.382-9.686v-23.374h33c1.657,0,3-1.343,3-3
			v-30.95C426.878,223.962,425.536,222.619,423.878,222.619z M392.26,292.628c0,2.238-1.82,4.059-4.059,4.059
			s-4.059-1.82-4.059-4.059c0-2.238,1.82-4.059,4.059-4.059S392.26,290.39,392.26,292.628z"/>
		<g>
			
				<linearGradient id="SVGID_00000179606494310044500720000017290174750504341931_" gradientUnits="userSpaceOnUse" x1="381.1369" y1="234.2512" x2="396.7334" y2="270.5533">
				<stop  offset="0" style="stop-color:#84FF5B"/>
				<stop  offset="0.4469" style="stop-color:#06D46F"/>
				<stop  offset="0.5114" style="stop-color:#06CC75"/>
				<stop  offset="0.6123" style="stop-color:#06B686"/>
				<stop  offset="0.7371" style="stop-color:#0691A1"/>
				<stop  offset="0.8794" style="stop-color:#065FC6"/>
				<stop  offset="1" style="stop-color:#062FEA"/>
			</linearGradient>
			<path style="fill:url(#SVGID_00000179606494310044500720000017290174750504341931_);" d="M373.643,280.207c-1.657,0-3-1.343-3-3
				v-36.471c0-1.657,1.343-3,3-3h36.229c1.657,0,3,1.343,3,3c0,1.657-1.343,3-3,3h-33.229v33.471
				C376.643,278.865,375.3,280.207,373.643,280.207z"/>
		</g>
	</g>
	<g>
		
			<linearGradient id="SVGID_00000002380977642412834540000001713882138589466498_" gradientUnits="userSpaceOnUse" x1="106.6533" y1="434.7443" x2="86.9415" y2="364.5209">
			<stop  offset="0" style="stop-color:#062FEA"/>
			<stop  offset="0.1206" style="stop-color:#065FC6"/>
			<stop  offset="0.2629" style="stop-color:#0691A1"/>
			<stop  offset="0.3877" style="stop-color:#06B686"/>
			<stop  offset="0.4886" style="stop-color:#06CC75"/>
			<stop  offset="0.5531" style="stop-color:#06D46F"/>
			<stop  offset="1" style="stop-color:#84FF5B"/>
		</linearGradient>
		<path style="fill:url(#SVGID_00000002380977642412834540000001713882138589466498_);" d="M125.103,403.403
			c0-0.852-0.362-1.664-0.997-2.232L85.37,366.409c-0.881-0.791-2.144-0.992-3.226-0.507c-1.081,0.482-1.777,1.556-1.777,2.739
			v30.515c-4.086,1.279-7.059,5.1-7.059,9.602c0,5.546,4.513,10.059,10.059,10.059c5.546,0,10.059-4.513,10.059-10.059
			c0-4.502-2.973-8.323-7.059-9.602v-23.793l31.246,28.039l-36.249,32.529c-1.233,1.107-1.336,3.003-0.229,4.236
			c0.593,0.66,1.412,0.996,2.234,0.996c0.713,0,1.43-0.253,2.002-0.767l38.737-34.762
			C124.741,405.067,125.103,404.254,125.103,403.403z M83.366,412.817c-2.238,0-4.059-1.82-4.059-4.059
			c0-2.238,1.821-4.06,4.059-4.06c2.238,0,4.059,1.821,4.059,4.06C87.425,410.996,85.604,412.817,83.366,412.817z"/>
		
			<linearGradient id="SVGID_00000081629412231397613630000002539899446373624197_" gradientUnits="userSpaceOnUse" x1="133.0073" y1="434.7443" x2="113.2954" y2="364.5207">
			<stop  offset="0" style="stop-color:#062FEA"/>
			<stop  offset="0.1206" style="stop-color:#065FC6"/>
			<stop  offset="0.2629" style="stop-color:#0691A1"/>
			<stop  offset="0.3877" style="stop-color:#06B686"/>
			<stop  offset="0.4886" style="stop-color:#06CC75"/>
			<stop  offset="0.5531" style="stop-color:#06D46F"/>
			<stop  offset="1" style="stop-color:#84FF5B"/>
		</linearGradient>
		<path style="fill:url(#SVGID_00000081629412231397613630000002539899446373624197_);" d="M150.461,401.17l-38.737-34.762
			c-1.233-1.108-3.129-1.005-4.236,0.228c-1.106,1.233-1.004,3.13,0.229,4.236l36.249,32.529l-36.249,32.529
			c-1.233,1.107-1.336,3.003-0.229,4.236c0.593,0.66,1.412,0.996,2.234,0.996c0.713,0,1.43-0.253,2.002-0.767l38.737-34.762
			c0.634-0.568,0.997-1.381,0.997-2.232C151.457,402.551,151.095,401.739,150.461,401.17z"/>
	</g>
	
		<linearGradient id="SVGID_00000141452985335192074200000018367936240532671932_" gradientUnits="userSpaceOnUse" x1="269.4243" y1="444.9529" x2="247.1525" y2="365.6095">
		<stop  offset="0" style="stop-color:#FFE200"/>
		<stop  offset="0.4469" style="stop-color:#FF9200"/>
		<stop  offset="0.5192" style="stop-color:#FF880A"/>
		<stop  offset="0.6441" style="stop-color:#FF6C26"/>
		<stop  offset="0.8065" style="stop-color:#FF3F54"/>
		<stop  offset="0.9985" style="stop-color:#FF0192"/>
		<stop  offset="1" style="stop-color:#FF0093"/>
	</linearGradient>
	<path style="fill:url(#SVGID_00000141452985335192074200000018367936240532671932_);" d="M277.862,390.141
		c-5.038,0-9.138,4.1-9.138,9.138c0,1.844,0.553,3.559,1.497,4.996l-14.272,14.272v-24.313l19.074-19.074
		c0.895,0.294,1.848,0.458,2.839,0.458c5.038,0,9.137-4.1,9.137-9.138c0-5.038-4.099-9.137-9.137-9.137
		c-5.038,0-9.138,4.099-9.138,9.137c0,1.844,0.553,3.56,1.497,4.997l-19.394,19.394c-0.563,0.563-0.879,1.325-0.879,2.121v32.798
		v2.351l-4.671-4.672v-13.477c0-0.796-0.316-1.559-0.878-2.121l-11.461-11.461c0.392-1.017,0.615-2.117,0.615-3.27
		c0-5.038-4.099-9.137-9.137-9.137c-5.038,0-9.137,4.099-9.137,9.137c0,5.038,4.099,9.138,9.137,9.138c1.691,0,3.27-0.47,4.63-1.274
		l10.231,10.231v13.478c0,0.796,0.316,1.559,0.879,2.121l8.865,8.864c0.275,0.275,0.592,0.479,0.928,0.625v10.137
		c0,1.657,1.343,3,3,3c1.657,0,3-1.343,3-3v-19.429l19.073-19.074c0.895,0.294,1.848,0.458,2.84,0.458
		c5.038,0,9.137-4.1,9.137-9.138C286.999,394.24,282.9,390.141,277.862,390.141z M277.862,363.344c1.73,0,3.137,1.407,3.137,3.137
		c0,1.73-1.407,3.138-3.137,3.138c-1.73,0-3.138-1.407-3.138-3.138C274.724,364.751,276.131,363.344,277.862,363.344z
		 M224.416,396.278c-1.73,0-3.137-1.407-3.137-3.138c0-1.729,1.407-3.137,3.137-3.137c1.73,0,3.137,1.407,3.137,3.137
		C227.553,394.871,226.146,396.278,224.416,396.278z M277.862,402.416c-1.73,0-3.138-1.407-3.138-3.138
		c0-1.73,1.407-3.138,3.138-3.138c1.73,0,3.137,1.407,3.137,3.138C280.999,401.009,279.591,402.416,277.862,402.416z"/>
	<g>
		<g>
			
				<linearGradient id="SVGID_00000158737097149613658740000012232800375255839912_" gradientUnits="userSpaceOnUse" x1="380.6171" y1="377.5881" x2="399.6766" y2="426.2959" gradientTransform="matrix(0.7891 -0.6142 0.6142 0.7891 -163.7254 325.3133)">
				<stop  offset="0" style="stop-color:#84FF5B"/>
				<stop  offset="0.4469" style="stop-color:#06D46F"/>
				<stop  offset="0.5114" style="stop-color:#06CC75"/>
				<stop  offset="0.6123" style="stop-color:#06B686"/>
				<stop  offset="0.7371" style="stop-color:#0691A1"/>
				<stop  offset="0.8794" style="stop-color:#065FC6"/>
				<stop  offset="1" style="stop-color:#062FEA"/>
			</linearGradient>
			<path style="fill:url(#SVGID_00000158737097149613658740000012232800375255839912_);" d="M402.688,417.441
				c-7.844,6.105-19.192,4.691-25.297-3.152s-4.69-19.192,3.153-25.297c7.844-6.105,19.192-4.69,25.297,3.154
				C411.946,399.989,410.532,411.336,402.688,417.441z M384.23,393.726c-5.233,4.073-6.177,11.644-2.104,16.877
				c4.073,5.233,11.643,6.176,16.877,2.103c5.233-4.073,6.176-11.643,2.103-16.876C397.033,390.597,389.463,389.653,384.23,393.726z
				"/>
		</g>
		
			<linearGradient id="SVGID_00000098180147301910795850000000896320283058238631_" gradientUnits="userSpaceOnUse" x1="380.0701" y1="416.9181" x2="368.2919" y2="374.958" gradientTransform="matrix(0.7891 -0.6142 0.6142 0.7891 -163.7254 325.3133)">
			<stop  offset="0" style="stop-color:#FFE200"/>
			<stop  offset="0.4469" style="stop-color:#FF9200"/>
			<stop  offset="0.5192" style="stop-color:#FF880A"/>
			<stop  offset="0.6441" style="stop-color:#FF6C26"/>
			<stop  offset="0.8065" style="stop-color:#FF3F54"/>
			<stop  offset="0.9985" style="stop-color:#FF0192"/>
			<stop  offset="1" style="stop-color:#FF0093"/>
		</linearGradient>
		<path style="fill:url(#SVGID_00000098180147301910795850000000896320283058238631_);" d="M371.605,377.506
			c-13.379,10.413-16.41,29.267-7.434,43.271l-7.95,6.188c-3.5-2.297-8.217-2.252-11.7,0.459c-4.377,3.407-5.167,9.74-1.76,14.117
			c3.406,4.376,9.739,5.166,14.117,1.759c3.619-2.817,4.777-7.633,3.146-11.691l10.092-7.855c1.308-1.018,1.543-2.902,0.525-4.21
			c-9.003-11.567-6.917-28.3,4.65-37.303c11.566-9.002,28.299-6.916,37.302,4.65c1.018,1.308,2.902,1.543,4.21,0.525
			c1.308-1.018,1.543-2.902,0.525-4.21C406.293,369.029,385.782,366.471,371.605,377.506z M353.193,438.565
			c-1.766,1.375-4.322,1.057-5.696-0.709c-1.375-1.766-1.056-4.322,0.71-5.697c1.766-1.375,4.321-1.056,5.696,0.711
			C355.277,434.635,354.959,437.19,353.193,438.565z"/>
		
			<linearGradient id="SVGID_00000108988902730519814620000015680919327310140043_" gradientUnits="userSpaceOnUse" x1="412.4832" y1="430.4787" x2="400.7052" y2="388.5193" gradientTransform="matrix(0.7891 -0.6142 0.6142 0.7891 -163.7254 325.3133)">
			<stop  offset="0" style="stop-color:#1F27FF"/>
			<stop  offset="1" style="stop-color:#BA03F1"/>
		</linearGradient>
		<path style="fill:url(#SVGID_00000108988902730519814620000015680919327310140043_);" d="M426.644,363.504
			c-3.553,2.765-4.742,7.458-3.241,11.469l-10.141,7.893c-1.308,1.018-1.543,2.902-0.525,4.21
			c9.002,11.566,6.916,28.299-4.65,37.301c-11.567,9.003-28.3,6.917-37.302-4.649c-1.018-1.308-2.902-1.543-4.21-0.525
			c-1.308,1.018-1.543,2.902-0.525,4.21c11.034,14.177,31.545,16.733,45.722,5.698c13.379-10.413,16.41-29.266,7.434-43.27
			l7.882-6.135c3.519,2.438,8.36,2.438,11.913-0.327c4.376-3.406,5.166-9.739,1.759-14.116
			C437.353,360.887,431.021,360.098,426.644,363.504z M435.316,374.646c-1.766,1.375-4.322,1.057-5.696-0.709
			c-1.375-1.766-1.056-4.322,0.71-5.697c1.766-1.375,4.321-1.056,5.696,0.711C437.4,370.716,437.082,373.271,435.316,374.646z"/>
	</g>
</g>
</svg>
