<?xml version="1.0" encoding="utf-8"?>
<!-- Generator: Adobe Illustrator 24.0.0, SVG Export Plug-In . SVG Version: 6.00 Build 0)  -->
<svg version="1.1" id="Layer_1" xmlns="http://www.w3.org/2000/svg" xmlns:xlink="http://www.w3.org/1999/xlink" x="0px" y="0px"
	 viewBox="0 0 595.3 546.5" style="enable-background:new 0 0 595.3 546.5;" xml:space="preserve">
<style type="text/css">
	.st0{fill:#D02149;}
	.st1{fill:none;}
</style>
<g>
	<polygon class="st0" points="282.3,366.2 310.9,366.2 310.9,508.5 282.3,508.5 282.3,366.2 	"/>
	<path class="st0" d="M230.4,355c-4.9-2.7-19.5-9.9-36.5,4.8l-91.2,76.9l23.1,18.3l28.3-25.1c13.3,12.7,21.6,16.6,25.1,18.5
		c3.5,2,11.3,6.8,29.1,11.1l-5.9,37.4l27.9,9.6L246,388.3C249.3,366,235.3,357.7,230.4,355z M191.5,426c-7.6-4-15.9-10.3-18.1-13.2
		l37.3-33.3c1.6-1.4,4.2-2.2,6.6-0.9c2.5,1.4,3.2,4,2.9,6.1l-7.9,49.4C208.8,433.9,199,430.2,191.5,426z"/>
	<path class="st0" d="M346.8,388.3l15.7,118.3l27.9-9.6l-5.9-37.4c17.8-4.3,25.6-9.2,29.1-11.1c3.5-1.9,11.8-5.8,25.1-18.5
		l28.3,25.1l23.1-18.3l-91.2-76.9c-16.9-14.8-31.5-7.5-36.5-4.8C357.4,357.7,343.5,366,346.8,388.3z M380.4,434.1l-7.9-49.4
		c-0.3-2.1,0.4-4.7,2.9-6.1c2.5-1.4,5-0.6,6.6,0.9l37.3,33.3c-2.1,2.9-10.5,9.2-18.1,13.2C393.8,430.2,383.9,433.9,380.4,434.1z"/>
	<path class="st0" d="M251.2,230.4c-7.1-2-12.4-2.4-16.2-3.2s1.9-3.2,3.8-3.5c1.9-0.3,16.4-4.8,21.5-8.3c5.1-3.5,22.4-13.2,24.8-17
		c2.4-3.8,10.8-1.6,11.8-1.6c0,0,0.5,1.3-1.6,3.5c-2.2,2.2-2.2,4.6-3,7.3s-2.4,4.9-5.4,6.7c-3,1.9-13.2,8.1-11.9,16.7
		c1.3,8.6,9.7,18.9,14.8,21.5c5.1,2.7,24.7,17.9,28,21c4.6,4.3,7.5,12.4,10.5,21.3c3,8.9,12.4,13.2,18.9,13.2s16.7-0.3,20.7,5.9
		c0,0-1.1,1.1-3.8,0.8c-2.7-0.3-12.9,3.2-15.6,4.6c-2.7,1.3-12.7,1.9-21,1.1c-8.3-0.8-14.3-0.8-17.5,2.7c-3.2,3.5-6.2,5.9-11.9,6.5
		c-5.7,0.5-38.5-1.3-45.2-5.1c-7.8-4.3,7-4.6,9.4-5.4s19.4-3.5,24.2-5.9c3.9-2,14.8-15.4,19.9-17c5.1-1.6,4.6-10-0.3-12.7
		c-4.8-2.7-7,1.9-10.8-3.2c-3.8-5.1-0.3-7.3-3.8-12.4c-3.5-5.1-15.6-13.7-21-21.3C265.5,239,256.9,232,251.2,230.4z"/>
	<path class="st0" d="M296.8,40.8C175.4,40.8,77,139.2,77,260.5c0,50.5,17.1,97.1,45.8,134.2l7.1-5.4
		c-16.3-21.1-28.5-45.4-35.4-71.7c0-2.8,6.1-1.6,9.7-0.8c3.6,0.8,28.7,8.9,38.4,7.3s23-6.1,32.7-10.5c9.7-4.4,22.2-5.3,26.3-4.8
		c4,0.4-2-4.4-5.7-6.1s-13.3,0-23.4,0s18.6-29.1,21-30.7s4.8-3.2,1.6-3.2s-22.2,10.5-28.7,12.5c-6.5,2-20.2,1.6-27.5,2
		c-7.3,0.4-25,12.1-30.3,14.5s-17.2,5.6-17.2,5.6s2.6-35.1,14.3-51.7s27.9-33.1,33.9-30.3s0,8.5,2.8,11.3s6.9,2.4,6.9,8.9
		s1.6,9.7-6.9,19c-8.5,9.3-11.3,15.8-3.2,12.9c8.1-2.8,27.5-8.9,32.7-10.5s16.2-13.3,22.2-16.6s33.5-31.1,39.2-33.9
		s15.8-10.5,18.6-14.9s9.7-13.7,15.8-17c6.1-3.2,25.5-14.9,29.1-20.6c3.6-5.7,8.5-15.4,10.9-14.9s9.7,4,12.9,7.7s2.4,7.7,4.4,10.9
		c2,3.2,6.5,8.1,12.5,10.1c6.1,2,22.6,14.9,19,16.6c-3,1.3-14.1-6.9-19-7.3s-8.1,0-6.9,2.8c1.2,2.8,15.4,14.9,18.6,19.4
		s3.2,14.9,6.1,23.4c2.8,8.5,9.3,9.3,10.1,22.6s12.5,25.9,17.4,29.9s11.7,10.1,15.8,10.5c4,0.4,3.2-2.4,9.7,0s5.3,0,2.4-5.3
		c-2.8-5.3,2.8-6.9,2.8-6.9c14.1-0.8,19.8,14.5,19.4,27.5c-0.4,12.9-9.3,9.7-14.1,19.8c-4.8,10.1,0,7.3,2.4,5.3
		c2.4-2,19.4-1.6,27.9-2.4c8.5-0.8,15.8-11.7,19-14.5c3.2-2.8,6.1-2.8,8.9-1.2c2.8,1.6-0.4,10.5,1.2,11.7c1.6,1.2,10.5-5.3,13.7-7.7
		s7.7-2.4,7.7-2.4c0-0.1,0.1-0.1,0.1-0.2c-6.8,27.4-19.4,52.7-36.4,74.5l7.1,5.4c28.9-37.2,46.2-83.9,46.2-134.7
		C516.5,139.2,418.1,40.8,296.8,40.8z M473.3,257.1c-5.3-4-19-20.2-25.9-22.2c-6.9-2-26.7-15.4-32.7-18.2
		c-6.1-2.8-13.3-12.5-14.5-17.4c-1.2-4.8-12.5-20.2-18.6-21.4c-6.1-1.2-33.5-13.3-37.6-14.9s-18.2-10.5-24.2-15.4
		c-6.1-4.8-12.3-5.3-14.3-4.4c-2,0.8-8.3,12.1-10.7,15.8s-25.9,18.2-28.7,19c-2.8,0.8-10.5,5.7-14.5,9.3
		c-5.1,4.6-6.5,10.9-12.9,14.9c-6.1,3.8-33.5,22.6-38.4,25.9s-12.5,14.1-18.2,13.7s-25.5-8.9-29.9-13.7s-13.3-9.3-13.3-9.3
		c-9.1,0-38.3,27.4-50.6,39.3c5.1-107.6,96.5-193.3,208.5-193.3c109.3,0,198.9,81.6,208,185.4C496.5,264,478.4,260.9,473.3,257.1z"
		/>
</g>
<rect x="30.7" y="6.2" class="st1" width="532.1" height="532.1"/>
</svg>
